<svg width="103" height="142" viewBox="0 0 103 142" fill="none" xmlns="http://www.w3.org/2000/svg">
<g clip-path="url(#clip0_2041_29171)">
<path d="M73.251 31.886L81.5959 5.37763H73.6409C65.615 5.37763 57.6144 4.47629 49.791 2.68881C41.9676 0.901335 33.972 0 25.9461 0H17.6467L29.3286 31.886C31.0959 37.5016 28.8729 43.6084 23.8953 46.758C9.34737 55.9638 -0.248303 72.2891 -0.000182429 90.8424C0.37453 118.47 22.9231 141.023 50.5556 141.408C79.216 141.808 102.575 118.693 102.575 90.1234C102.575 71.8992 93.0702 55.8929 78.7451 46.7985C73.7472 43.6236 71.4686 37.5269 73.2459 31.8809L73.251 31.886Z" fill="#A887DE"/>
<path d="M47.0822 125.032V117.492C41.7653 117.254 36.6054 115.827 33.5925 114.08L35.9725 104.793C39.3044 106.616 43.9883 108.287 49.1481 108.287C53.67 108.287 56.769 106.54 56.769 103.365C56.769 100.19 54.227 98.4429 48.3582 96.4579C39.8664 93.602 34.0736 89.6321 34.0736 81.9353C34.0736 74.9525 38.9955 69.4736 47.4873 67.8076V60.2678H55.2651V67.2506C60.5819 67.4886 64.1518 68.5976 66.7748 69.8686L64.4708 78.8363C62.4049 77.9654 58.759 76.1374 53.0421 76.1374C47.8822 76.1374 46.2163 78.3603 46.2163 80.5833C46.2163 83.2012 48.9962 84.8672 55.7411 87.4091C65.1848 90.741 68.9927 95.1059 68.9927 102.251C68.9927 109.396 63.9949 115.345 54.865 116.935V125.032H47.0872H47.0822Z" fill="#FEE3FF"/>
<path d="M76.1625 41.6334H26.7917C24.6953 41.6334 22.9939 39.932 22.9939 37.8356C22.9939 35.7392 24.6953 34.0378 26.7917 34.0378H76.1625C78.2589 34.0378 79.9603 35.7392 79.9603 37.8356C79.9603 39.932 78.2589 41.6334 76.1625 41.6334Z" fill="#FEE3FF"/>
</g>
<defs>
<clipPath id="clip0_2041_29171">
<rect width="102.58" height="141.413" fill="white"/>
</clipPath>
</defs>
</svg>
