<svg width="168" height="121" viewBox="0 0 168 121" fill="none" xmlns="http://www.w3.org/2000/svg">
<g clip-path="url(#clip0_2041_28469)">
<path d="M90.8715 120.212C111.628 114.265 111.783 82.204 112.271 70.6841C112.758 59.1671 105.857 14.4304 100.78 8.41643C95.7002 2.40248 26.2712 24.7971 23.2642 30.6272C20.2544 36.4572 42.9351 82.35 46.4938 89.5317C50.0526 96.7134 70.1146 126.158 90.8744 120.212H90.8715Z" fill="#A887DE"/>
<path d="M83.587 51.72C84.1213 53.5797 87.5924 54.219 91.3439 53.1447C95.0953 52.0703 97.7023 49.691 97.168 47.8285C96.6338 45.9688 93.1626 45.3295 89.4112 46.4038C85.6598 47.4781 83.0528 49.8574 83.5841 51.72H83.587Z" fill="#411768"/>
<path d="M47.1971 62.148C47.7314 64.0076 51.2025 64.647 54.9539 63.5726C58.7054 62.4983 61.3124 60.119 60.781 58.2564C60.2468 56.3968 56.7756 55.7574 53.0242 56.8318C49.2728 57.9061 46.6658 60.2854 47.2 62.148H47.1971Z" fill="#411768"/>
<path d="M82.1338 90.218C75.755 92.0455 70.4796 95.8261 66.7107 100.701C67.4289 93.1315 72.6546 86.4111 80.4056 84.1894C88.1565 81.9678 96.1498 84.9017 100.768 90.942C94.9879 88.8021 88.5127 88.3904 82.1338 90.218Z" fill="#411768"/>
<path d="M80.8281 111.745C101.857 116.65 117.592 88.7173 123.623 78.8906C129.655 69.0669 145.396 26.6248 143.887 18.9001C142.375 11.1754 70.8263 -3.04789 65.3612 0.58091C59.8961 4.20971 57.3738 55.337 56.9884 63.3449C56.603 71.3528 59.7998 106.838 80.8281 111.743V111.745Z" fill="#FEE3FF"/>
<path d="M107.68 48.3362C107.24 50.2222 109.963 52.4672 113.764 53.3547C117.562 54.2421 121.002 53.4306 121.439 51.5446C121.88 49.6587 119.156 47.4137 115.355 46.5262C111.557 45.6387 108.118 46.4503 107.68 48.3362Z" fill="#411768"/>
<path d="M70.8156 39.7386C70.3748 41.6245 73.0985 43.8695 76.8996 44.757C80.7006 45.6445 84.1368 44.8329 84.5747 42.947C85.0155 41.0611 82.2917 38.816 78.4907 37.9285C74.6925 37.041 71.2535 37.8526 70.8156 39.7386Z" fill="#411768"/>
<path d="M87.7771 80.8322C94.2377 82.3386 100.687 81.6059 106.353 79.1799C102.041 85.4449 94.2056 88.7701 86.3524 86.9396C78.4993 85.1091 72.9437 78.6573 71.8518 71.1311C75.8601 75.8138 81.3165 79.3229 87.7771 80.8322Z" fill="#411768"/>
</g>
<defs>
<clipPath id="clip0_2041_28469">
<rect width="167.281" height="121" fill="white"/>
</clipPath>
</defs>
</svg>
