<svg width="117" height="103" viewBox="0 0 117 103" fill="none" xmlns="http://www.w3.org/2000/svg">
<path d="M26.7519 1C26.2474 1 25.7398 1.01974 25.2282 1.05921C24.9242 1.0829 24.6187 1.11369 24.3124 1.15158C23.2607 1.28185 22.1996 1.49502 21.1409 1.78634C9.47759 5.00041 -2.13679 17.8527 2.57497 34.9534C7.77148 53.8106 32.9329 77.7752 57.9207 101.572V100.128C33.0569 76.4481 8.63282 53.0022 3.58316 34.6762C-0.943057 18.2491 10.1874 5.88939 21.4188 2.79454C22.431 2.51585 23.4423 2.31294 24.441 2.18899C24.7316 2.15346 25.0213 2.12425 25.3095 2.10136C25.7942 2.06425 26.2758 2.0453 26.7543 2.0453C38.2858 2.0453 47.9911 12.7762 57.9207 23.9027V22.3324C48.3717 11.6425 38.54 1 26.7519 1ZM90.258 1.045C89.4392 1.045 88.63 1.09632 87.8294 1.19501C77.0804 2.52453 67.9111 12.4817 58.966 22.469V24.0369C68.2624 13.6494 77.3701 3.5422 87.9573 2.23241C88.7161 2.13846 89.4827 2.0903 90.258 2.0903C90.7443 2.0903 91.2338 2.10925 91.7272 2.14873C102.779 3.0235 115.599 13.865 114.373 29.3645C114.235 31.1022 113.922 32.9007 113.408 34.7528C108.331 53.0756 83.8677 76.4915 58.966 100.141V101.583C83.9909 77.8178 109.192 53.8849 114.415 35.0323C114.947 33.117 115.272 31.253 115.415 29.4474C116.694 13.287 103.349 2.01925 91.8101 1.10658C91.289 1.06474 90.7711 1.045 90.258 1.045ZM68.1448 54.2662C64.4696 54.2662 61.2469 56.206 59.4444 59.1169C59.2368 59.4532 59.0473 59.8022 58.8792 60.163H60.0484C60.2434 59.799 60.4621 59.4501 60.7029 59.1169C62.3703 56.8115 65.0823 55.3123 68.1448 55.3123C73.2142 55.3123 77.3235 59.4216 77.3235 64.491C77.3235 69.5596 73.2142 73.669 68.1448 73.669C65.0823 73.669 62.3703 72.1697 60.7029 69.8644C60.4629 69.532 60.2434 69.1831 60.0484 68.8191H58.8792C59.0473 69.1791 59.2368 69.5289 59.4452 69.8644C61.2469 72.7753 64.4696 74.7151 68.1448 74.7151C73.7913 74.7151 78.3688 70.1376 78.3688 64.491C78.3688 58.8437 73.7913 54.2662 68.1448 54.2662ZM58.8792 68.8191H58.4434C58.1544 68.8191 57.9207 69.0528 57.9207 69.3417V101.572C57.9768 101.625 58.032 101.678 58.0881 101.732C58.1891 101.828 58.3186 101.876 58.4489 101.876C58.5784 101.876 58.7078 101.828 58.8089 101.732C58.861 101.682 58.9139 101.632 58.966 101.583V100.141V69.8644H59.4452C59.2455 69.5423 59.0639 69.2091 58.9005 68.8641C58.8934 68.8491 58.8863 68.8341 58.8792 68.8191ZM58.4434 44.5648H58.0075C57.8394 44.9256 57.6499 45.2745 57.4423 45.6109H57.9207V59.6403C57.9207 59.9293 58.1544 60.163 58.4434 60.163H58.8792C59.0473 59.8022 59.2368 59.4532 59.4444 59.1169H58.966V45.0882C58.966 44.9493 58.9115 44.8166 58.8128 44.7179C58.7149 44.62 58.5823 44.5648 58.4434 44.5648ZM48.7419 30.0127C43.0954 30.0127 38.5179 34.5902 38.5179 40.2375C38.5179 45.884 43.0954 50.4616 48.7419 50.4616C52.4171 50.4616 55.6398 48.5225 57.4423 45.6109C57.6499 45.2745 57.8394 44.9256 58.0075 44.5648H56.8383C56.6433 44.9287 56.4246 45.2785 56.1838 45.6109C54.5164 47.9162 51.8044 49.4155 48.7419 49.4155C43.6725 49.4155 39.5632 45.3061 39.5632 40.2375C39.5632 35.1681 43.6725 31.0587 48.7419 31.0587C51.8044 31.0587 54.5164 32.5588 56.1838 34.8634C56.4246 35.1965 56.6433 35.5455 56.8383 35.9095H58.0083C57.8394 35.5486 57.6499 35.1997 57.4423 34.8634C55.6398 31.9525 52.4179 30.0127 48.7419 30.0127ZM57.9207 22.3324V34.8634H57.4423C57.6499 35.1997 57.8394 35.5486 58.0083 35.9095L58.4434 35.9102C58.5823 35.9095 58.7149 35.8542 58.8128 35.7563C58.9115 35.6584 58.966 35.525 58.966 35.3868V24.0369V22.469C58.8121 22.6411 58.6581 22.814 58.5041 22.9861C58.3091 22.7682 58.1149 22.5495 57.9207 22.3324Z" fill="#361768"/>
<path d="M87.9573 2.23241C77.3701 3.5422 68.2624 13.6494 58.966 24.0369V35.3868C58.966 35.525 58.9115 35.6584 58.8128 35.7563C58.7149 35.8542 58.5823 35.9095 58.4434 35.9102L58.0083 35.9095H56.8383C56.6433 35.5455 56.4246 35.1965 56.1838 34.8634C54.5164 32.5588 51.8044 31.0587 48.7419 31.0587C43.6725 31.0587 39.5632 35.1681 39.5632 40.2375C39.5632 45.3061 43.6725 49.4155 48.7419 49.4155C51.8044 49.4155 54.5164 47.9162 56.1838 45.6109C56.4246 45.2785 56.6433 44.9287 56.8383 44.5648H58.0075H58.4434C58.5823 44.5648 58.7149 44.62 58.8128 44.7179C58.9115 44.8166 58.966 44.9493 58.966 45.0882V59.1169H59.4444C61.2469 56.206 64.4696 54.2662 68.1448 54.2662C73.7913 54.2662 78.3688 58.8437 78.3688 64.491C78.3688 70.1376 73.7913 74.7151 68.1448 74.7151C64.4696 74.7151 61.2469 72.7753 59.4452 69.8644H58.966V100.141C83.8677 76.4915 108.331 53.0756 113.408 34.7528C113.922 32.9007 114.235 31.1022 114.373 29.3645C115.599 13.865 102.779 3.0235 91.7272 2.14873C91.2338 2.10925 90.7443 2.0903 90.258 2.0903C89.4827 2.0903 88.7161 2.13846 87.9573 2.23241Z" fill="#361768"/>
<path d="M57.9207 101.572C32.9329 77.7752 7.77148 53.8106 2.57497 34.9534C-2.13679 17.8527 9.47759 5.00041 21.1409 1.78634C22.1996 1.49502 23.2607 1.28185 24.3124 1.15158C24.6187 1.11369 24.9242 1.0829 25.2282 1.05921C25.7398 1.01974 26.2474 1 26.7519 1C38.54 1 48.3717 11.6425 57.9207 22.3324M57.9207 101.572V100.128C33.0569 76.4481 8.63282 53.0022 3.58316 34.6762C-0.943057 18.2491 10.1874 5.88939 21.4188 2.79454C22.431 2.51585 23.4423 2.31294 24.441 2.18899C24.7316 2.15346 25.0213 2.12425 25.3095 2.10136C25.7942 2.06425 26.2758 2.0453 26.7543 2.0453C38.2858 2.0453 47.9911 12.7762 57.9207 23.9027V22.3324M57.9207 101.572V69.3417C57.9207 69.0528 58.1544 68.8191 58.4434 68.8191H58.8792M57.9207 101.572C57.9768 101.625 58.032 101.678 58.0881 101.732C58.1891 101.828 58.3186 101.876 58.4489 101.876C58.5784 101.876 58.7078 101.828 58.8089 101.732C58.861 101.682 58.9139 101.632 58.966 101.583M57.9207 22.3324V34.8634H57.4423M57.9207 22.3324C58.1149 22.5495 58.3091 22.7682 58.5041 22.9861C58.6581 22.814 58.8121 22.6411 58.966 22.469M58.966 22.469C67.9111 12.4817 77.0804 2.52453 87.8294 1.19501C88.63 1.09632 89.4392 1.045 90.258 1.045C90.7711 1.045 91.289 1.06474 91.8101 1.10658C103.349 2.01925 116.694 13.287 115.415 29.4474C115.272 31.253 114.947 33.117 114.415 35.0323C109.192 53.8849 83.9909 77.8178 58.966 101.583M58.966 22.469V24.0369M58.966 24.0369C68.2624 13.6494 77.3701 3.5422 87.9573 2.23241C88.7161 2.13846 89.4827 2.0903 90.258 2.0903C90.7443 2.0903 91.2338 2.10925 91.7272 2.14873C102.779 3.0235 115.599 13.865 114.373 29.3645C114.235 31.1022 113.922 32.9007 113.408 34.7528C108.331 53.0756 83.8677 76.4915 58.966 100.141M58.966 24.0369V35.3868C58.966 35.525 58.9115 35.6584 58.8128 35.7563C58.7149 35.8542 58.5823 35.9095 58.4434 35.9102L58.0083 35.9095M58.966 24.0369C58.9423 24.0645 58.9178 24.0914 58.8934 24.1182M58.966 100.141V101.583M58.966 100.141C58.7939 100.304 58.6218 100.468 58.4489 100.632M58.966 100.141V69.8644H59.4452M59.4444 59.1169C61.2469 56.206 64.4696 54.2662 68.1448 54.2662C73.7913 54.2662 78.3688 58.8437 78.3688 64.491C78.3688 70.1376 73.7913 74.7151 68.1448 74.7151C64.4696 74.7151 61.2469 72.7753 59.4452 69.8644M59.4444 59.1169C59.2368 59.4532 59.0473 59.8022 58.8792 60.163M59.4444 59.1169H58.966V45.0882C58.966 44.9493 58.9115 44.8166 58.8128 44.7179C58.7149 44.62 58.5823 44.5648 58.4434 44.5648H58.0075M58.8792 60.163H60.0484C60.2434 59.799 60.4621 59.4501 60.7029 59.1169C62.3703 56.8115 65.0823 55.3123 68.1448 55.3123C73.2142 55.3123 77.3235 59.4216 77.3235 64.491C77.3235 69.5596 73.2142 73.669 68.1448 73.669C65.0823 73.669 62.3703 72.1697 60.7029 69.8644M58.8792 60.163H58.4434C58.1544 60.163 57.9207 59.9293 57.9207 59.6403V45.6109H57.4423M60.7029 69.8644H60.1976M60.7029 69.8644C60.4629 69.532 60.2434 69.1831 60.0484 68.8191H58.8792M58.8792 68.8191C59.0473 69.1791 59.2368 69.5289 59.4452 69.8644M58.8792 68.8191C58.8863 68.8341 58.8934 68.8491 58.9005 68.8641C59.0639 69.2091 59.2455 69.5423 59.4452 69.8644M58.0075 44.5648C57.8394 44.9256 57.6499 45.2745 57.4423 45.6109M58.0075 44.5648H56.8383C56.6433 44.9287 56.4246 45.2785 56.1838 45.6109C54.5164 47.9162 51.8044 49.4155 48.7419 49.4155C43.6725 49.4155 39.5632 45.3061 39.5632 40.2375C39.5632 35.1681 43.6725 31.0587 48.7419 31.0587C51.8044 31.0587 54.5164 32.5588 56.1838 34.8634C56.4246 35.1965 56.6433 35.5455 56.8383 35.9095H58.0083M57.4423 45.6109C55.6398 48.5225 52.4171 50.4616 48.7419 50.4616C43.0954 50.4616 38.5179 45.884 38.5179 40.2375C38.5179 34.5902 43.0954 30.0127 48.7419 30.0127C52.4179 30.0127 55.6398 31.9525 57.4423 34.8634M57.4423 45.6109H56.8746M58.0083 35.9095C57.8394 35.5486 57.6499 35.1997 57.4423 34.8634M58.7094 24.2509C58.6447 24.2785 58.5752 24.2935 58.5034 24.2935" stroke="#361768" stroke-width="2"/>
</svg>
