<svg width="246" height="246" viewBox="0 0 246 246" fill="none" xmlns="http://www.w3.org/2000/svg">
<path d="M119.663 45.3101C131.299 44.6208 140.174 34.6286 139.485 22.9918C138.795 11.3551 128.803 2.48043 117.167 3.16974C105.53 3.85905 96.6551 13.8513 97.3444 25.488C98.0337 37.1248 108.026 45.9994 119.663 45.3101Z" fill="#361768"/>
<path d="M118.415 23.1141C115.842 23.1141 114.347 22.1834 113.145 21.4367C112.171 20.8311 111.402 20.3526 110.13 20.3526C107.295 20.3526 105.588 21.9823 105.517 22.0513L103.692 20.2155C103.792 20.1159 106.188 17.7649 110.131 17.7649C112.142 17.7649 113.402 18.5482 114.512 19.2391C115.623 19.93 116.582 20.5263 118.415 20.5263V23.1151V23.1141Z" fill="white"/>
<path d="M118.415 23.1148V20.5261C120.248 20.5261 121.207 19.9297 122.317 19.2388C123.429 18.548 124.688 17.7646 126.698 17.7646C130.641 17.7646 133.036 20.1156 133.137 20.2152L131.313 22.0511C131.242 21.982 129.535 20.3524 126.699 20.3524C125.428 20.3524 124.659 20.8309 123.685 21.4364C122.483 22.1842 120.987 23.1138 118.415 23.1138V23.1148Z" fill="white"/>
<path d="M118.415 30.7075C115.842 30.7075 114.347 29.7779 113.145 29.0312C112.171 28.4256 111.402 27.9471 110.13 27.9471C107.295 27.9471 105.588 29.5757 105.517 29.6458L103.693 27.8089C103.793 27.7083 106.188 25.3594 110.131 25.3594C112.142 25.3594 113.402 26.1427 114.512 26.8326C115.623 27.5234 116.582 28.1198 118.415 28.1198V30.7085V30.7075Z" fill="white"/>
<path d="M118.415 30.7083V28.1196C120.247 28.1196 121.206 27.5232 122.317 26.8323C123.428 26.1425 124.688 25.3591 126.698 25.3591C130.641 25.3591 133.036 27.7081 133.136 27.8087L131.306 29.6385L132.222 28.7231L131.313 29.6446C131.241 29.5745 129.535 27.9458 126.699 27.9458C125.428 27.9458 124.659 28.4244 123.684 29.0299C122.483 29.7766 120.987 30.7063 118.415 30.7063V30.7083Z" fill="white"/>
<path d="M50.7138 182.818C58.9567 174.575 58.9567 161.211 50.7138 152.968C42.471 144.725 29.1067 144.725 20.8638 152.968C12.621 161.211 12.621 174.575 20.8638 182.818C29.1067 191.061 42.471 191.061 50.7138 182.818Z" fill="#361768"/>
<path d="M51.7526 170.875H19.8242V173.463H51.7526V170.875Z" fill="white"/>
<path d="M51.7526 164.207H39.829V166.795H51.7526V164.207Z" fill="white"/>
<path d="M31.7478 164.207H19.8242V166.795H31.7478V164.207Z" fill="white"/>
<path d="M42.4171 165.501H39.8283C39.8283 163.273 38.0158 161.46 35.7878 161.46C33.5597 161.46 31.7472 163.274 31.7472 165.501H29.1584C29.1584 161.845 32.1322 158.871 35.7878 158.871C39.4433 158.871 42.4161 161.845 42.4161 165.501H42.4171Z" fill="white"/>
<path d="M201.041 189C212.698 189 222.148 179.55 222.148 167.893C222.148 156.236 212.698 146.786 201.041 146.786C189.384 146.786 179.934 156.236 179.934 167.893C179.934 179.55 189.384 189 201.041 189Z" fill="#361768"/>
<path d="M201.279 161.683C194.192 161.683 189.03 158.658 188.708 158.465L190.038 156.244C190.145 156.309 200.859 162.536 212.073 156.227L213.343 158.484C209.078 160.882 204.923 161.683 201.279 161.683Z" fill="white"/>
<path d="M212.073 179.559C200.815 173.226 190.146 179.477 190.04 179.54L188.708 177.321C189.196 177.029 200.785 170.24 213.343 177.303L212.073 179.56V179.559Z" fill="white"/>
<path d="M206.852 160.035H204.263V175.751H206.852V160.035Z" fill="white"/>
<path d="M197.82 160.035H195.231V175.751H197.82V160.035Z" fill="white"/>
<path d="M133.34 229.581C141.583 221.338 141.583 207.974 133.34 199.731C125.097 191.488 111.733 191.488 103.49 199.731C95.247 207.974 95.247 221.338 103.49 229.581C111.733 237.824 125.097 237.824 133.34 229.581Z" fill="#361768"/>
<path d="M111.527 224.776C108.07 224.776 105.257 221.963 105.257 218.506C105.257 215.049 108.07 212.236 111.527 212.236C114.985 212.236 117.798 215.049 117.798 218.506C117.798 221.963 114.985 224.776 111.527 224.776ZM111.527 214.825C109.497 214.825 107.846 216.476 107.846 218.506C107.846 220.536 109.497 222.187 111.527 222.187C113.557 222.187 115.208 220.536 115.208 218.506C115.208 216.476 113.557 214.825 111.527 214.825Z" fill="white"/>
<path d="M126.188 227.167C124.656 227.167 123.154 226.687 122.011 225.79C120.631 224.706 119.885 223.123 119.912 221.333C119.944 219.236 121.151 217.73 122.215 216.399C122.476 216.074 122.736 215.75 122.973 215.42C123.119 215.219 123.267 215.02 123.416 214.822C123.654 214.505 123.894 214.188 124.111 213.857C125.237 212.144 125.279 209.638 124.212 207.765C123.34 206.234 121.695 205.101 119.918 204.807C118.062 204.498 116.133 205.139 114.759 206.514C113.305 207.969 112.639 210.108 112.776 212.869L110.19 212.998C110.015 209.476 110.936 206.678 112.928 204.684C114.891 202.721 117.661 201.814 120.34 202.253C122.906 202.678 125.194 204.26 126.462 206.486C128.015 209.213 127.938 212.747 126.274 215.28C126.026 215.657 125.756 216.019 125.485 216.378C125.346 216.562 125.208 216.746 125.072 216.934C124.809 217.299 124.523 217.658 124.235 218.018C123.314 219.169 122.517 220.164 122.499 221.373C122.481 222.605 123.092 223.349 123.609 223.755C124.567 224.507 126.036 224.775 127.35 224.433C128.189 224.215 128.814 223.835 129.261 223.269L131.293 224.872C130.496 225.883 129.388 226.578 128.001 226.939C127.405 227.093 126.794 227.168 126.187 227.168L126.188 227.167Z" fill="white"/>
<path d="M215.894 86.3784C224.137 78.1355 224.137 64.7712 215.894 56.5284C207.651 48.2855 194.287 48.2855 186.044 56.5284C177.801 64.7712 177.801 78.1355 186.044 86.3784C194.287 94.6212 207.651 94.6212 215.894 86.3784Z" fill="#361768"/>
<path d="M199.608 85.0456C199.608 84.9643 199.591 76.7846 198.248 67.3857C197.526 62.3271 196.133 60.1905 193.734 60.4801C191.427 60.7513 190.313 63.4986 190.06 65.7693L187.486 65.4828C187.844 62.2692 189.616 58.3577 193.432 57.9096C199.405 57.2076 200.464 64.5938 200.812 67.021C202.181 76.6089 202.198 84.9633 202.198 85.0466H199.609L199.608 85.0456Z" fill="white"/>
<path d="M202.329 85.0443H199.74C199.74 84.961 199.756 76.6065 201.126 67.0187C201.473 64.5905 202.534 57.2103 208.506 57.9073C212.321 58.3564 214.092 62.2679 214.451 65.4805L211.877 65.767C211.624 63.4962 210.511 60.749 208.202 60.4777C205.81 60.1923 204.411 62.3248 203.688 67.3834C202.345 76.7823 202.329 84.962 202.329 85.0433V85.0443Z" fill="white"/>
<path d="M50.6424 86.3766C58.8852 78.1338 58.8852 64.7695 50.6424 56.5267C42.3995 48.2838 29.0353 48.2838 20.7924 56.5267C12.5496 64.7695 12.5496 78.1338 20.7924 86.3766C29.0353 94.6195 42.3996 94.6195 50.6424 86.3766Z" fill="#361768"/>
<path d="M45.3225 60.2786L24.2789 81.3296L26.1098 83.1598L47.1534 62.1088L45.3225 60.2786Z" fill="white"/>
<path d="M47.535 60.6658H44.9463V70.1378H47.535V60.6658Z" fill="white"/>
<path d="M47.5353 59.8979H37.8225V62.4867H47.5353V59.8979Z" fill="white"/>
<path d="M28.2139 70.8001L26.3834 72.6306L34.8025 81.0497L36.633 79.2192L28.2139 70.8001Z" fill="white"/>
<path d="M85.5512 52.0075C93.794 43.7647 93.7941 30.4004 85.5512 22.1575C77.3084 13.9147 63.9441 13.9147 55.7012 22.1575C47.4584 30.4004 47.4584 43.7647 55.7012 52.0075C63.9441 60.2504 77.3084 60.2504 85.5512 52.0075Z" fill="#361768"/>
<path d="M64.3554 40.8944L61.7667 40.8802C61.7779 38.959 61.7393 37.3222 61.6427 35.7282L61.345 30.7671C61.1144 27.3087 60.2132 25.8904 58.2382 25.8812L58.2504 23.2925C61.6956 23.3087 63.6066 25.7684 63.9287 30.6035L64.2274 35.5737C64.327 37.2257 64.3676 38.9163 64.3554 40.8955V40.8944Z" fill="white"/>
<path d="M68.0847 50.921C67.5655 50.921 67.0657 50.8722 66.5912 50.8265L66.0913 50.7808L66.3077 48.2012L66.8381 48.25C67.847 48.3485 68.6415 48.4237 69.4045 48.1057C69.9206 47.8903 70.4459 47.2807 70.9224 46.343L70.9935 46.2038C71.5228 45.1604 72.0592 44.1037 72.613 43.0684C72.3976 42.406 72.2309 41.6755 72.1121 40.8719L72.0237 40.2856C71.8601 39.2107 71.6915 38.0982 71.6325 36.9461L71.3044 30.5108C71.2698 29.8464 71.22 29.1382 71.092 28.4616C70.8726 27.3125 70.4682 26.5648 69.8891 26.2386C68.9534 25.7093 67.4985 25.694 66.5749 26.202C65.1922 26.963 64.8986 29.1769 64.798 30.776L64.4861 35.7371C64.3865 37.3251 64.3418 38.9618 64.3479 40.8881L61.7592 40.8952C61.7541 38.912 61.7998 37.2214 61.9024 35.5745L62.2143 30.6135C62.3037 29.2063 62.5384 25.4695 65.3273 23.9344C67.0423 22.9915 69.44 23.0129 71.1611 23.9841C72.4331 24.7014 73.2652 26.0446 73.634 27.977C73.7925 28.807 73.8504 29.6219 73.889 30.3788L74.2172 36.814C74.27 37.8381 74.4214 38.8389 74.583 39.8975L74.6033 40.0337C75.731 38.7292 77.2083 37.6786 79.1508 37.6177C80.6707 37.5659 82.1266 38.2496 83.1162 39.482C84.1728 40.7987 84.561 42.5422 84.1525 44.1464C83.737 45.7801 82.5828 47.1029 81.0639 47.6851C80.3944 47.9411 79.6344 48.0498 78.8298 48.059C76.9817 48.0386 75.3002 47.2472 74.0912 45.8289C73.826 46.345 73.5639 46.8621 73.3028 47.3762L73.2317 47.5164C72.4616 49.0323 71.5096 50.0351 70.4022 50.4963C69.6026 50.8296 68.8243 50.924 68.0857 50.923L68.0847 50.921ZM75.478 43.2533C75.5756 43.4444 75.6792 43.6232 75.792 43.7898C75.8702 43.9056 75.9535 44.0184 76.045 44.1261C76.7643 44.9795 77.763 45.455 78.8582 45.4672C79.3327 45.4672 79.7757 45.4042 80.1384 45.265C80.8739 44.9836 81.4368 44.3262 81.6441 43.5063C81.8503 42.6976 81.641 41.7761 81.0985 41.1005C80.8181 40.752 80.2135 40.1698 79.2321 40.2023C77.9174 40.244 76.7114 41.2183 75.4791 43.2533H75.478Z" fill="white"/>
<path d="M181.37 52.1481C189.613 43.9053 189.613 30.541 181.37 22.2982C173.127 14.0553 159.763 14.0553 151.52 22.2982C143.277 30.541 143.277 43.9053 151.52 52.1481C159.763 60.391 173.127 60.391 181.37 52.1481Z" fill="#361768"/>
<path d="M173.545 52.281C161.767 37.3653 173.615 22.4059 173.736 22.2566L175.747 23.8862L174.741 23.0714L175.748 23.8852C175.307 24.4308 165.097 37.406 175.575 50.6768L173.543 52.281H173.545Z" fill="white"/>
<path d="M159.154 52.1897L157.143 50.5601C167.79 37.4234 157.746 24.3202 157.312 23.7685L159.345 22.1653C159.464 22.3156 171.121 37.4244 159.154 52.1897Z" fill="white"/>
<path d="M157.945 35.8767L157.928 38.4653L174.973 38.5754L174.99 35.9867L157.945 35.8767Z" fill="white"/>
<path d="M228.725 134.734C236.968 126.491 236.968 113.126 228.725 104.884C220.483 96.6408 207.118 96.6408 198.875 104.884C190.633 113.126 190.633 126.491 198.875 134.734C207.118 142.976 220.483 142.976 228.725 134.734Z" fill="#361768"/>
<path d="M213.799 132.322C208.527 132.322 204.239 128.034 204.239 122.762C204.239 117.49 208.527 113.201 213.799 113.201C219.071 113.201 223.36 117.49 223.36 122.762C223.36 128.034 219.071 132.322 213.799 132.322ZM213.799 115.79C209.955 115.79 206.828 118.917 206.828 122.762C206.828 126.606 209.955 129.734 213.799 129.734C217.644 129.734 220.771 126.606 220.771 122.762C220.771 118.917 217.644 115.79 213.799 115.79Z" fill="white"/>
<path d="M213.8 115.79C205.994 115.79 200.107 112.695 200.107 108.591H202.695C202.695 110.767 207.444 113.2 213.799 113.2C220.154 113.2 224.904 110.766 224.904 108.591H227.492C227.492 112.695 221.606 115.79 213.799 115.79H213.8Z" fill="white"/>
<path d="M23.029 140.917C34.6861 140.917 44.1361 131.467 44.1361 119.81C44.1361 108.153 34.6861 98.7026 23.029 98.7026C11.3719 98.7026 1.92188 108.153 1.92188 119.81C1.92188 131.467 11.3719 140.917 23.029 140.917Z" fill="#361768"/>
<path d="M14.9153 112.33C14.1289 111.282 13.3314 110.75 12.543 110.75C11.1561 110.75 9.9207 112.314 9.90851 112.33L7.83691 110.777C8.03808 110.509 9.876 108.161 12.543 108.161C14.1899 108.161 15.6854 109.041 16.9869 110.777L14.9153 112.33Z" fill="white"/>
<path d="M33.7659 131.453C33.2041 131.453 32.7134 131.348 32.3344 131.226C30.2608 130.559 28.813 128.484 28.813 126.179V113.144C28.813 112.214 28.3487 111.368 27.6294 110.99C27.1112 110.718 26.6083 110.675 26.0485 110.855C25.0325 111.182 24.3234 112.244 24.3234 113.437V128.066H21.7346V113.437C21.7346 111.133 23.1824 109.058 25.255 108.39C26.4701 107.999 27.7066 108.105 28.8343 108.698C30.4183 109.53 31.4017 111.234 31.4017 113.144V126.179C31.4017 127.373 32.1109 128.434 33.1279 128.761C33.7923 128.974 34.8287 129.054 36.1505 127.29L38.2221 128.843C36.6645 130.92 35.0329 131.453 33.7659 131.453Z" fill="white"/>
<path d="M17.2455 128.067H14.6567V113.438C14.6567 111.134 16.1045 109.059 18.1771 108.391C19.3902 108.001 20.6277 108.107 21.7565 108.699C23.3404 109.532 24.3239 111.235 24.3239 113.145V126.18H21.7351V113.145C21.7351 112.215 21.2708 111.369 20.5515 110.991C20.0323 110.72 19.5304 110.676 18.9706 110.856C17.9546 111.183 17.2455 112.245 17.2455 113.438V128.067Z" fill="white"/>
<path d="M17.2451 126.18H14.6564V113.145C14.6564 112.214 14.1921 111.369 13.4717 110.991C12.9546 110.718 12.4527 110.676 11.8919 110.856L11.0984 108.392C12.3115 108.001 13.5479 108.107 14.6767 108.7C16.2606 109.532 17.2451 111.236 17.2451 113.146V126.181V126.18Z" fill="white"/>
<path d="M85.4297 217.519C93.6726 209.277 93.6726 195.912 85.4297 187.669C77.1869 179.427 63.8226 179.427 55.5798 187.669C47.3369 195.912 47.3369 209.277 55.5798 217.519C63.8226 225.762 77.1869 225.762 85.4297 217.519Z" fill="#361768"/>
<path d="M62.5903 196.341C61.8548 195.36 61.1121 194.863 60.3826 194.863C59.0923 194.863 57.9371 196.326 57.9259 196.341L55.8553 194.787C56.0484 194.53 57.8142 192.274 60.3836 192.274C61.9726 192.274 63.4112 193.12 64.6619 194.787L62.5913 196.341H62.5903Z" fill="white"/>
<path d="M80.2704 215.027C76.5783 213.406 75.8031 211.119 75.8031 209.486V197.082C75.8031 196.219 75.3744 195.436 74.7099 195.087C74.2324 194.837 73.7701 194.798 73.255 194.963C72.3132 195.266 71.6559 196.252 71.6559 197.361V211.282H69.0671V197.361C69.0671 195.141 70.4631 193.143 72.4615 192.5C73.632 192.123 74.8268 192.225 75.9139 192.796C77.4429 193.599 78.3919 195.242 78.3919 197.083V209.487C78.3919 210.741 79.3733 211.807 81.3098 212.657L80.2694 215.028L80.2704 215.027Z" fill="white"/>
<path d="M73.39 215.953L71.4932 214.191C72.8647 212.714 74.2678 211.176 75.6374 209.579V197.359C75.6374 195.14 77.0333 193.141 79.0318 192.498C80.2032 192.121 81.398 192.223 82.4851 192.794C84.6502 193.932 85.784 196.648 85.3075 199.553C84.9794 201.552 83.7592 203.239 82.6832 204.725C82.5054 204.971 82.3287 205.215 82.159 205.456C80.9256 207.213 79.5946 208.903 78.2271 210.53V211.28H77.5891C76.1982 212.902 74.7789 214.458 73.391 215.953H73.39ZM80.4237 194.862C80.2296 194.862 80.0305 194.896 79.8232 194.963C78.8824 195.265 78.2251 196.251 78.2251 197.36V206.419C78.8489 205.616 79.4554 204.799 80.0386 203.969C80.2154 203.718 80.3983 203.464 80.5842 203.208C81.5372 201.892 82.5217 200.531 82.7513 199.134C82.9982 197.635 82.6385 195.801 81.2802 195.088C80.9947 194.938 80.7143 194.863 80.4247 194.863L80.4237 194.862Z" fill="white"/>
<path d="M64.9197 211.282H62.3309V197.361C62.3309 195.142 63.7269 193.143 65.7243 192.5C66.8958 192.123 68.0906 192.225 69.1777 192.796C70.7067 193.6 71.6557 195.242 71.6557 197.083V209.487H69.0669V197.083C69.0669 196.22 68.6382 195.437 67.9747 195.088C67.4972 194.838 67.0349 194.799 66.5188 194.964C65.578 195.267 64.9207 196.253 64.9207 197.362V211.283L64.9197 211.282Z" fill="white"/>
<path d="M64.9199 209.486H62.3311V197.082C62.3311 196.219 61.9024 195.436 61.2389 195.087C60.7604 194.835 60.2971 194.797 59.783 194.963L58.9885 192.5C60.16 192.123 61.3548 192.225 62.4419 192.796C63.9709 193.6 64.9199 195.242 64.9199 197.083V209.487V209.486Z" fill="white"/>
<path d="M181.25 217.52C189.493 209.277 189.493 195.913 181.25 187.67C173.008 179.427 159.643 179.427 151.4 187.67C143.158 195.913 143.158 209.277 151.4 217.52C159.643 225.763 173.008 225.763 181.25 217.52Z" fill="#361768"/>
<path d="M174.338 208.478C171.086 208.478 168.441 205.832 168.441 202.58C168.441 199.328 171.087 196.682 174.338 196.682C177.589 196.682 180.235 199.328 180.235 202.58C180.235 205.832 177.589 208.478 174.338 208.478ZM174.338 199.272C172.513 199.272 171.029 200.756 171.029 202.581C171.029 204.406 172.513 205.889 174.338 205.889C176.163 205.889 177.647 204.405 177.647 202.581C177.647 200.758 176.163 199.272 174.338 199.272Z" fill="white"/>
<path d="M166.844 216.596C164.221 216.596 161.241 216.18 157.911 215.344L158.54 212.833C166.343 214.79 171.859 214.321 174.944 211.442C178.622 208.006 177.6 202.049 177.59 201.989L180.136 201.523C180.19 201.823 181.432 208.903 176.728 213.319C174.401 215.502 171.092 216.596 166.844 216.597V216.596Z" fill="white"/>
<path d="M158.312 208.477C155.06 208.477 152.416 205.831 152.416 202.579C152.416 199.327 155.061 196.681 158.312 196.681C161.563 196.681 164.209 199.327 164.209 202.579C164.209 205.831 161.563 208.477 158.312 208.477ZM158.312 199.271C156.489 199.271 155.003 200.756 155.003 202.58C155.003 204.405 156.488 205.888 158.312 205.888C160.137 205.888 161.621 204.404 161.621 202.58C161.621 200.757 160.137 199.271 158.312 199.271Z" fill="white"/>
<path d="M152.513 203.666C152.459 203.367 151.217 196.286 155.922 191.871C159.686 188.339 166.02 187.657 174.739 189.845L174.11 192.356C166.305 190.4 160.788 190.867 157.706 193.747C154.028 197.183 155.05 203.14 155.06 203.2L152.514 203.666H152.513Z" fill="white"/>
</svg>
