<svg width="281" height="214" viewBox="0 0 281 214" fill="none" xmlns="http://www.w3.org/2000/svg">
<path fill-rule="evenodd" clip-rule="evenodd" d="M39.7331 140.412L58.0507 151.694L72.6011 128.068C53.1291 111.709 48.0672 83.1126 61.795 60.8227C76.8999 36.2968 109.031 28.6582 133.557 43.7633C155.893 57.5196 164.213 85.3812 154.136 108.764C151.677 107.892 149.298 106.747 146.986 105.323C145.232 104.243 143.61 103.052 142.081 101.746C148.485 84.88 142.247 65.3222 126.321 55.5136C108.283 44.4046 84.6548 50.0218 73.5458 68.0596C62.4375 86.0962 68.054 109.724 86.0919 120.833C102.188 130.747 122.738 127.345 134.86 113.678C136.406 114.888 138.041 116.023 139.749 117.075C142.076 118.508 144.489 119.737 146.935 120.772C132.299 139.078 107.151 145.321 85.7021 136.137L71.1517 159.762L89.4679 171.043C90.2131 171.502 90.4609 172.489 89.9922 173.25L83.6156 183.604C83.1472 184.364 82.1445 184.603 81.3993 184.144L63.0831 172.863L51.8121 191.164C51.3434 191.925 50.3548 192.172 49.5951 191.704L39.2259 185.318C38.4808 184.859 38.2424 183.856 38.7111 183.095L49.9821 164.795L31.6646 153.513C30.9198 153.055 30.681 152.052 31.1495 151.291L37.5261 140.937C37.9948 140.176 38.9884 139.954 39.7331 140.412Z" fill="#BAABD3"/>
<path fill-rule="evenodd" clip-rule="evenodd" d="M194.451 28.2544C203.749 33.9809 210.605 42.1421 214.728 51.4046L251.298 42.7105L232.376 31.0573C231.615 30.5887 231.393 29.5954 231.852 28.8499L237.606 19.5059C238.066 18.7603 239.053 18.5124 239.814 18.9811L278.729 42.9476C279.474 43.4068 279.697 44.4 279.238 45.1456L255.271 84.0607C254.813 84.805 253.834 85.0387 253.089 84.5795L243.728 78.8148C242.984 78.3564 242.736 77.367 243.194 76.6227L254.858 57.6847L218.864 66.241C220.281 77.6052 217.982 89.5065 211.51 100.015C196.405 124.541 164.29 132.189 139.748 117.075C117.426 103.327 109.092 75.4559 119.194 52.0661C121.628 52.9456 124.023 54.0985 126.321 55.5137C128.075 56.5941 129.71 57.7946 131.225 59.0906C124.82 75.9576 131.06 95.5146 146.986 105.323C165.023 116.431 188.65 110.816 199.76 92.7781C210.868 74.7415 205.25 51.113 187.214 40.0047C171.132 30.1005 150.582 33.5012 138.445 47.1586C136.899 45.9495 135.264 44.8147 133.557 43.7634C131.228 42.3292 128.841 41.0943 126.387 40.0746C142.599 19.7644 171.771 14.2869 194.451 28.2544Z" fill="#BAABD3"/>
</svg>
