<svg width="308" height="308" viewBox="0 0 308 308" fill="none" xmlns="http://www.w3.org/2000/svg">
<path d="M114.498 307.825L307.242 208.364L283.088 161.556L90.3435 261.017L114.498 307.825Z" fill="#402370"/>
<path d="M89.6622 260.286L20.3442 158.426L78.6683 179.127L89.7019 23.2853L224.002 104.66L240.039 45.0581L283.337 161.435L170.331 219.749L90.5479 262.002L89.6622 260.286Z" fill="#402370"/>
<path d="M112.194 26.2273C113.819 13.8085 105.069 2.42371 92.6501 0.798656C80.2313 -0.826401 68.8465 7.92364 67.2215 20.3424C65.5964 32.7612 74.3464 44.146 86.7652 45.771C99.184 47.3961 110.569 38.646 112.194 26.2273Z" fill="#402370"/>
<path d="M37.736 174.667C47.2619 166.535 48.3923 152.221 40.2607 142.695C32.1291 133.169 17.8148 132.038 8.28883 140.17C-1.23713 148.302 -2.36748 162.616 5.76412 172.142C13.8957 181.668 28.21 182.798 37.736 174.667Z" fill="#402370"/>
<path d="M251.158 64.8909C261.23 57.4472 263.361 43.2473 255.917 33.1748C248.474 23.1022 234.274 20.9711 224.201 28.4149C214.129 35.8587 211.998 50.0585 219.441 60.1311C226.885 70.2036 241.085 72.3347 251.158 64.8909Z" fill="#402370"/>
</svg>
