<svg width="18" height="17" viewBox="0 0 18 17" fill="none" xmlns="http://www.w3.org/2000/svg">
<path d="M8.57542 0.306719C8.70906 -0.104581 9.29094 -0.10458 9.42458 0.306719L11.1449 5.60136C11.2047 5.78529 11.3761 5.90983 11.5695 5.90983H17.1366C17.5691 5.90983 17.7489 6.46323 17.399 6.71743L12.8951 9.98969C12.7387 10.1034 12.6732 10.3049 12.7329 10.4888L14.4533 15.7835C14.5869 16.1947 14.1162 16.5368 13.7663 16.2826L9.2624 13.0103C9.10594 12.8966 8.89406 12.8966 8.7376 13.0103L4.23371 16.2826C3.88384 16.5368 3.41309 16.1947 3.54673 15.7835L5.26706 10.4888C5.32682 10.3049 5.26135 10.1034 5.10488 9.98969L0.600996 6.71743C0.251124 6.46323 0.430935 5.90983 0.863401 5.90983H6.43051C6.62392 5.90983 6.79532 5.78529 6.85509 5.60136L8.57542 0.306719Z" fill="url(#paint0_radial_2041_30651)"/>
<defs>
<radialGradient id="paint0_radial_2041_30651" cx="0" cy="0" r="1" gradientUnits="userSpaceOnUse" gradientTransform="translate(9 9) rotate(90) scale(10)">
<stop stop-color="#F1BA5B"/>
<stop offset="1" stop-color="#B87500"/>
</radialGradient>
</defs>
</svg>
