<svg width="332" height="64" viewBox="0 0 332 64" fill="none" xmlns="http://www.w3.org/2000/svg">
<g clip-path="url(#clip0_4001_3250)">
<path fill-rule="evenodd" clip-rule="evenodd" d="M331.428 8.22998H324.395V22.0046C322.372 19.8388 319.648 18.7125 316.219 18.7125C312.439 18.7125 309.449 20.012 307.252 22.5244C305.053 25.1233 303.824 28.2421 303.824 31.7941C303.824 35.3461 304.877 38.4647 307.076 40.9772C309.273 43.4894 312.263 44.7891 316.043 44.7891C320 44.7891 322.987 43.3162 325.099 40.4574V44.0094H331.428V8.22998ZM321.757 25.9031C322.987 26.6828 323.78 27.7223 324.306 28.8485V34.5665C323.78 35.7793 322.9 36.7322 321.757 37.5118C320.615 38.2915 319.296 38.7246 317.801 38.7246C315.78 38.7246 314.196 38.1182 313.053 36.7322C311.911 35.3461 311.296 33.6999 311.296 31.7075C311.296 29.7148 311.911 28.0689 313.053 26.6828C314.196 25.3834 315.78 24.6901 317.801 24.6901C319.296 24.6901 320.615 25.1233 321.757 25.9031ZM128.263 16.1136C129.054 15.4205 129.494 14.3809 129.494 13.0814C129.494 11.7819 129.054 10.7423 128.263 10.1359C127.384 9.44283 126.417 9.09629 125.186 9.09629C123.955 9.09629 122.988 9.44283 122.197 10.1359C121.406 10.829 120.966 11.7819 120.966 13.0814C120.966 14.4675 121.406 15.4205 122.197 16.1136C122.988 16.8066 123.955 17.1532 125.186 17.1532C126.417 17.1532 127.472 16.8066 128.263 16.1136ZM121.669 44.0094H128.878V19.4922H121.669V44.0094ZM77.5378 44.0094H84.7465H84.8345V27.8956C86.4169 25.9031 88.1751 24.9502 90.197 24.9502C91.3399 24.9502 92.307 25.2967 93.0103 25.9898C93.7136 26.6828 94.0651 27.6357 94.0651 28.9354V44.0094H101.186V28.5022C101.186 28.1978 101.156 27.9525 101.131 27.7495C101.113 27.606 101.098 27.4835 101.098 27.3758C102.505 25.7299 104.175 24.9502 106.021 24.9502C107.164 24.9502 108.131 25.2967 108.835 25.9898C109.538 26.6828 109.889 27.6357 109.889 28.9354V43.9228H117.098V28.4156C117.098 25.9031 116.307 23.6508 114.812 21.6581C113.318 19.6656 110.944 18.7126 107.779 18.7126C104.79 18.7126 102.065 19.9255 99.5157 22.3512C97.8455 19.9255 95.296 18.7126 91.8674 18.7126C90.1093 18.7126 88.6146 19.1458 87.208 19.8389C85.8014 20.6186 84.7465 21.3983 83.9552 22.3512V19.4923H77.5378V44.0094ZM140.219 23.1317C141.186 21.6589 142.505 20.6193 144.263 19.8396C146.021 19.0599 148.043 18.8 150.241 18.9732V25.9038C148.307 25.5573 146.461 25.7306 144.702 26.4236C143.032 27.1166 141.713 28.1564 141.01 29.6291V44.0101H133.801V19.493H140.219V23.1317ZM163.251 19.8396C161.493 20.6193 160.175 21.6589 159.208 23.1317V19.493H152.79V44.0101H159.999V29.6291C160.702 28.1564 162.021 27.1166 163.691 26.4236C165.449 25.7306 167.296 25.5573 169.229 25.9038V18.9732C167.032 18.8 165.01 19.0599 163.251 19.8396ZM173.801 41.3237C171.164 39.0711 169.845 35.8659 169.845 31.7941C169.845 27.7223 171.164 24.5169 173.801 22.2645C176.439 20.012 179.692 18.7991 183.56 18.7991C187.428 18.7991 190.68 19.9254 193.318 22.2645C195.955 24.5169 197.274 27.7223 197.274 31.7941C197.274 35.8659 195.955 39.0711 193.318 41.3237C190.68 43.5761 187.428 44.7891 183.56 44.7891C179.692 44.7025 176.439 43.5761 173.801 41.3237ZM188.307 36.5589C189.45 35.3461 189.977 33.6999 189.977 31.7941C189.977 29.8881 189.45 28.2421 188.307 27.0293C187.164 25.8163 185.582 25.1233 183.56 25.1233C181.538 25.1233 179.955 25.7297 178.9 27.0293C177.757 28.2421 177.23 29.8881 177.23 31.7941C177.23 33.6999 177.757 35.3461 178.9 36.5589C180.043 37.7717 181.626 38.4647 183.56 38.4647C185.582 38.3781 187.164 37.7717 188.307 36.5589ZM211.164 19.8396C209.406 20.6193 208.087 21.6589 207.12 23.1317V19.493H200.703V44.0101H207.911V29.6291C208.615 28.1564 209.933 27.1166 211.604 26.4236C213.362 25.7306 215.208 25.5573 217.142 25.9038V18.9732C214.944 18.8 212.922 19.0599 211.164 19.8396ZM226.9 44.0094H219.692V19.4923H226.109V22.3512C226.9 21.3983 227.955 20.6186 229.362 19.8389C230.768 19.1458 232.263 18.7126 234.02 18.7126C237.449 18.7126 240 19.9255 241.671 22.3512C244.219 19.9255 246.944 18.7126 249.933 18.7126C253.099 18.7126 255.472 19.6656 256.967 21.6581C258.461 23.6508 259.252 25.9031 259.252 28.4156V43.9228H252.13V28.9354C252.13 27.6357 251.78 26.6828 251.076 25.9898C250.372 25.2967 249.405 24.9502 248.263 24.9502C246.416 24.9502 244.747 25.7299 243.339 27.3758C243.339 27.4835 243.355 27.6058 243.373 27.7491C243.399 27.9521 243.428 28.1975 243.428 28.5022V44.0094H236.306V28.9354C236.306 27.6357 235.956 26.6828 235.252 25.9898C234.548 25.2967 233.581 24.9502 232.439 24.9502C230.416 24.9502 228.658 25.9031 227.076 27.8956V44.0094H226.9ZM270.505 16.1136C271.296 15.4205 271.735 14.3809 271.735 13.0814C271.735 11.7819 271.296 10.7423 270.505 10.1359C269.625 9.44283 268.658 9.09629 267.428 9.09629C266.196 9.09629 265.229 9.44283 264.439 10.1359C263.648 10.829 263.209 11.7819 263.209 13.0814C263.209 14.4675 263.648 15.4205 264.439 16.1136C265.229 16.8066 266.196 17.1532 267.428 17.1532C268.658 17.1532 269.714 16.8066 270.505 16.1136ZM263.911 44.0094H271.12V19.4922H263.911V44.0094ZM290.637 18.7991C287.426 18.7991 284.729 19.9812 282.461 22.512V19.4922H276.043V44.0092H283.252V27.9822C284.658 25.9029 286.505 24.8634 288.791 24.8634C290.285 24.8634 291.428 25.2965 292.306 26.0764C293.186 26.9427 293.625 28.1555 293.625 29.7148V44.0958H300.747V28.9351C300.747 25.9895 299.867 23.5639 298.109 21.658C296.263 19.7521 293.801 18.7991 290.637 18.7991Z" fill="white"/>
<path fill-rule="evenodd" clip-rule="evenodd" d="M21.8901 10.6558C22.2418 10.2227 22.5934 9.87614 22.9451 9.5296C25.4944 7.01726 28.923 5.63113 32.5275 5.63113C36.1319 5.63113 39.5605 7.01726 42.1099 9.5296C42.2857 9.70288 42.4615 9.8978 42.6373 10.0927C42.813 10.2876 42.989 10.4826 43.1648 10.6558C43.7801 11.4355 44.3077 12.2152 44.7472 13.0816C45.6263 14.8142 46.0658 16.7201 46.0658 18.7127C46.0658 19.579 45.9781 20.4453 45.8901 21.225C45.6263 22.8711 45.011 24.4304 44.0439 25.9033C43.6043 26.5963 43.077 27.2894 42.4615 27.9824L40.6153 26.1632L38.5056 24.0839C38.4789 24.1102 38.4441 24.1365 38.4064 24.165C38.3191 24.2309 38.2151 24.3097 38.1538 24.4304L34.2857 28.069L36.4834 30.2347L38.3296 32.0542L42.0219 35.6928C42.0487 35.7189 42.0752 35.7531 42.1042 35.7904C42.1712 35.8763 42.251 35.9787 42.3737 36.0393C42.989 36.6457 43.5166 37.3387 43.9561 38.1184C44.923 39.5911 45.4505 41.1506 45.8023 42.7966C47.8242 42.7966 49.6704 42.2768 51.3406 41.3239C50.8133 38.7248 49.7582 36.2992 48.088 34.0466C47.5605 33.3536 47.0329 32.6606 46.4176 32.0542C47.0329 31.4478 47.5605 30.7547 48.088 30.0615C49.7582 27.8091 50.8133 25.3833 51.3406 22.7844C51.5166 21.9181 51.6923 20.9651 51.6923 20.0988V18.9726C51.6923 17.2399 51.4286 15.5073 50.989 13.7746C50.7253 12.8216 50.3737 11.8687 49.9342 10.9157C49.0549 9.0098 47.7362 7.19051 46.1538 5.5445C42.4615 1.99256 37.6263 0 32.4395 0C27.3406 0 22.5055 1.99256 18.8132 5.5445C17.2308 7.10389 15.9121 8.92318 15.033 10.9157C16.3517 10.6558 17.7582 10.5692 19.1648 10.5692C20.1319 10.4826 21.011 10.5692 21.8901 10.6558ZM9.67033 41.4105C10.022 41.757 10.3736 42.1035 10.8132 42.4501C10.7253 43.3163 10.6374 44.1826 10.7253 44.9623C10.7253 46.3486 10.8132 47.7346 11.0769 49.0341C9.05495 48.1678 7.2088 46.8683 5.62638 45.3088C2.02198 41.757 0 36.9922 0 31.9675C0 26.9426 2.02198 22.1779 5.80219 18.3661C7.38462 16.8067 9.23077 15.5938 11.2528 14.6409C12.1319 14.2077 13.1868 13.8612 14.1539 13.6013C15.8242 13.1681 17.5824 12.9082 19.3407 12.9082H20.4835L20.7035 12.9298C21.5221 13.0098 22.4024 13.0958 23.2087 13.2547C25.8462 13.7745 28.3957 14.9008 30.5934 16.4602C31.2967 16.98 32 17.4997 32.6153 18.1062C33.2309 17.4997 33.9339 16.98 34.6373 16.4602C36.8352 14.9008 39.3847 13.7745 42.0219 13.2547C42.989 14.9008 43.5166 16.72 43.5166 18.7126C41.8462 19.0591 40.1758 19.6656 38.7691 20.5319C37.9781 20.9651 37.2747 21.4848 36.6594 22.0913L36.3077 22.4378L32.6153 26.0763L30.7691 27.8958L28.5714 30.0615L24.8791 26.4229C24.7566 26.3625 24.6766 26.2601 24.6098 26.1742C24.5808 26.1367 24.5541 26.1026 24.5275 26.0763L26.6373 23.9973L28.4834 22.1779C27.7801 21.5715 27.077 21.0517 26.3737 20.6185C24.9671 19.6656 23.2967 19.0591 21.6264 18.7992C20.8352 18.7126 20.0439 18.626 19.2528 18.626H18.989C16.967 18.626 15.033 19.0591 13.2747 19.9255C12.3956 20.3586 11.6044 20.8784 10.8132 21.4848C10.6374 21.6581 10.4396 21.8314 10.2418 22.0047C10.044 22.1779 9.84615 22.3512 9.67033 22.5245C7.12087 25.0368 5.71429 28.4155 5.71429 31.9675C5.71429 35.5193 7.12087 38.8981 9.67033 41.4105ZM53.8896 14.9018C55.9115 15.7681 57.7577 17.0676 59.3401 18.627C62.9445 22.1789 64.9666 26.9438 64.8786 32.0551C64.8786 37.1664 62.8567 41.9312 59.2523 45.4832C57.6697 47.0425 55.8238 48.2553 53.8016 49.2085C53.6697 49.2517 53.5381 49.3166 53.4062 49.3817C53.2743 49.4466 53.1424 49.5115 53.0105 49.555C52.3072 49.8149 51.6039 50.0747 50.9006 50.248C49.2302 50.6811 47.472 50.941 45.7138 50.941H44.571L44.3509 50.9195C43.5323 50.8395 42.6519 50.7534 41.8457 50.5945C39.2082 50.0747 36.6587 48.9486 34.461 47.389C33.7577 46.8693 33.0544 46.3495 32.4391 45.7431C31.8238 46.3495 31.1205 46.8693 30.4171 47.389C28.2192 48.9486 25.6697 50.0747 23.0325 50.5945C22.0654 48.9486 21.5379 47.1291 21.5379 45.1367C23.2082 44.8768 24.8786 44.1838 26.2853 43.3173C27.0763 42.8841 27.7797 42.3643 28.3952 41.7579L28.7467 41.4114L32.4391 37.7728L34.2853 35.9536L36.483 33.7877L39.9995 37.5995C40.1221 37.6599 40.2018 37.7625 40.2688 37.8485C40.2978 37.8857 40.3246 37.92 40.3511 37.9461L38.2411 40.0254L36.3952 41.8446C37.0983 42.451 37.8016 42.9707 38.5049 43.4039C39.9115 44.357 41.5819 44.9634 43.2523 45.2233C44.0434 45.3099 44.8347 45.3966 45.6258 45.3966H45.8896C47.9115 45.3966 49.8457 44.9634 51.6039 44.0971C52.483 43.664 53.2743 43.144 54.0654 42.5376C54.2411 42.3643 54.4391 42.1911 54.6368 42.0178C54.8347 41.8446 55.0325 41.6713 55.2082 41.4981C56.4391 40.1986 57.4062 38.7257 58.1093 37.1664C58.8126 35.5205 59.1643 33.7877 59.1643 32.0551C59.1643 28.5031 57.7577 25.1246 55.2082 22.6121C54.8567 22.2656 54.5049 21.919 54.0654 21.5725C54.1534 20.7928 54.2411 19.8399 54.2411 18.9735C54.2411 17.5874 54.1534 16.2013 53.8896 14.9018ZM42.9815 53.4843C43.0128 53.4457 43.0446 53.4064 43.077 53.3664C43.9561 53.453 44.8352 53.453 45.6265 53.453C47.0329 53.453 48.4395 53.3664 49.7582 53.1065C48.8791 55.0992 47.5605 56.9184 45.9781 58.4777C38.5056 65.8416 26.2857 65.8416 18.8132 58.4777C17.2308 56.8318 15.9121 55.0126 15.033 53.1065C14.5934 52.1536 14.2418 51.2007 13.9781 50.2478C13.5385 48.515 13.2748 46.7824 13.2748 45.0498V43.9234C13.2748 43.0571 13.4506 42.1042 13.6264 41.2379C14.1539 38.6389 15.2088 36.2133 16.8792 33.9607C17.4066 33.2677 17.9341 32.5746 18.5495 31.9682C17.9341 31.3618 17.4067 30.6688 16.8792 29.9758C15.2089 27.7234 14.1539 25.2974 13.6264 22.6984C15.2968 21.7455 17.2308 21.2257 19.1649 21.2257C19.4286 22.8718 20.044 24.4311 21.011 25.9038C21.4506 26.6837 21.9781 27.3767 22.5934 27.9831C22.716 28.0434 22.7959 28.1461 22.8629 28.2318C22.8919 28.2693 22.9184 28.3033 22.9451 28.3296L26.6375 31.9682L28.4837 33.7874L30.5934 35.8667L26.901 39.5051C26.8398 39.6261 26.7358 39.7047 26.6487 39.7707C26.6107 39.7993 26.576 39.8256 26.5495 39.8517L24.4395 37.7726L22.5934 35.9534C21.9781 36.6464 21.4506 37.3394 21.011 38.0325C20.044 39.5051 19.4286 41.0647 19.1649 42.7106C19.077 43.5769 18.9891 44.4432 18.9891 45.3097C18.9891 47.3022 19.4286 49.208 20.3077 50.9408C20.7473 51.8071 21.2748 52.5867 21.8901 53.3664C22.066 53.5397 22.2418 53.7346 22.4176 53.9296C22.5934 54.1246 22.7693 54.3195 22.9451 54.4928C28.2199 59.6907 36.7472 59.6907 42.0219 54.4928C42.421 54.1783 42.675 53.8638 42.9815 53.4843Z" fill="#361768"/>
</g>
<defs>
<clipPath id="clip0_4001_3250">
<rect width="331.429" height="64" fill="white"/>
</clipPath>
</defs>
</svg>
