<svg width="145" height="28" viewBox="0 0 145 28" fill="none" xmlns="http://www.w3.org/2000/svg">
<g clip-path="url(#clip0_2041_27543)">
<path fill-rule="evenodd" clip-rule="evenodd" d="M145 3.60059H141.923V9.62698C141.038 8.67944 139.846 8.18671 138.346 8.18671C136.692 8.18671 135.384 8.75524 134.423 9.85439C133.461 10.9914 132.923 12.3559 132.923 13.9099C132.923 15.4639 133.384 16.8283 134.346 17.9275C135.307 19.0266 136.615 19.5952 138.269 19.5952C140 19.5952 141.307 18.9508 142.231 17.7001V19.2541H145V3.60059ZM140.769 11.3326C141.307 11.6737 141.654 12.1285 141.884 12.6212V15.1228C141.654 15.6534 141.269 16.0703 140.769 16.4114C140.269 16.7525 139.692 16.942 139.038 16.942C138.154 16.942 137.461 16.6767 136.961 16.0703C136.461 15.4639 136.192 14.7437 136.192 13.872C136.192 13.0002 136.461 12.2801 136.961 11.6737C137.461 11.1052 138.154 10.8019 139.038 10.8019C139.692 10.8019 140.269 10.9914 140.769 11.3326ZM56.1152 7.04966C56.4613 6.74644 56.6535 6.29162 56.6535 5.72309C56.6535 5.15456 56.4613 4.69974 56.1152 4.43443C55.7304 4.13121 55.3075 3.9796 54.769 3.9796C54.2305 3.9796 53.8074 4.13121 53.4613 4.43443C53.1152 4.73764 52.9227 5.15456 52.9227 5.72309C52.9227 6.32952 53.1152 6.74644 53.4613 7.04966C53.8074 7.35287 54.2305 7.50448 54.769 7.50448C55.3075 7.50448 55.769 7.35287 56.1152 7.04966ZM53.2304 19.2541H56.3843V8.52783H53.2304V19.2541ZM33.9229 19.2541H37.0766H37.1152V12.2043C37.8075 11.3326 38.5767 10.9157 39.4613 10.9157C39.9613 10.9157 40.3844 11.0673 40.6921 11.3705C40.9998 11.6737 41.1535 12.0906 41.1535 12.6592V19.2541H44.269V12.4697C44.269 12.3365 44.2557 12.2292 44.2449 12.1404C44.2371 12.0776 44.2304 12.024 44.2304 11.9769C44.8458 11.2568 45.5766 10.9157 46.3843 10.9157C46.8843 10.9157 47.3075 11.0673 47.6152 11.3705C47.9229 11.6737 48.0766 12.0906 48.0766 12.6592V19.2162H51.2304V12.4318C51.2304 11.3326 50.8843 10.3472 50.2304 9.47541C49.5766 8.60367 48.5381 8.18675 47.1535 8.18675C45.8458 8.18675 44.6536 8.71737 43.5382 9.77863C42.8075 8.71737 41.6921 8.18675 40.1921 8.18675C39.4229 8.18675 38.7689 8.37626 38.1535 8.67947C37.5381 9.02059 37.0766 9.36171 36.7304 9.77863V8.52786H33.9229V19.2541ZM61.3459 10.1201C61.769 9.47573 62.3459 9.0209 63.1151 8.67979C63.8844 8.33867 64.7689 8.22496 65.7304 8.30077V11.3329C64.8843 11.1813 64.0767 11.2571 63.3074 11.5603C62.5767 11.8635 61.9997 12.3184 61.6921 12.9627V19.2544H58.5382V8.52818H61.3459V10.1201ZM71.4226 8.67979C70.6534 9.0209 70.0764 9.47573 69.6533 10.1201V8.52818H66.8457V19.2544H69.9994V12.9627C70.3071 12.3184 70.8841 11.8635 71.6148 11.5603C72.3841 11.2571 73.1919 11.1813 74.038 11.3329V8.30077C73.0765 8.22496 72.1918 8.33867 71.4226 8.67979ZM76.0382 18.0791C74.8843 17.0936 74.3075 15.6913 74.3075 13.9099C74.3075 12.1285 74.8843 10.7261 76.0382 9.74067C77.1921 8.75522 78.6152 8.22459 80.3075 8.22459C81.9998 8.22459 83.4227 8.71732 84.5766 9.74067C85.7304 10.7261 86.3075 12.1285 86.3075 13.9099C86.3075 15.6913 85.7304 17.0936 84.5766 18.0791C83.4227 19.0645 81.9998 19.5952 80.3075 19.5952C78.6152 19.5573 77.1921 19.0645 76.0382 18.0791ZM82.3843 15.9945C82.8843 15.4639 83.1151 14.7437 83.1151 13.9099C83.1151 13.076 82.8843 12.3559 82.3843 11.8253C81.8843 11.2946 81.1921 10.9914 80.3075 10.9914C79.4229 10.9914 78.7304 11.2567 78.2689 11.8253C77.7689 12.3559 77.5382 13.076 77.5382 13.9099C77.5382 14.7437 77.7689 15.4639 78.2689 15.9945C78.7689 16.5251 79.4613 16.8283 80.3075 16.8283C81.1921 16.7904 81.8843 16.5251 82.3843 15.9945ZM92.3843 8.67979C91.6152 9.0209 91.0382 9.47573 90.6151 10.1201V8.52818H87.8075V19.2544H90.9613V12.9627C91.269 12.3184 91.8459 11.8635 92.5766 11.5603C93.3459 11.2571 94.1537 11.1813 94.9998 11.3329V8.30077C94.0383 8.22496 93.1535 8.33867 92.3843 8.67979ZM99.269 19.2541H96.1151V8.52786H98.9229V9.77863C99.269 9.36171 99.7304 9.02059 100.346 8.67947C100.961 8.37626 101.615 8.18675 102.384 8.18675C103.884 8.18675 105 8.71737 105.731 9.77863C106.846 8.71737 108.038 8.18675 109.346 8.18675C110.731 8.18675 111.769 8.60367 112.423 9.47541C113.077 10.3472 113.423 11.3326 113.423 12.4318V19.2162H110.307V12.6592C110.307 12.0906 110.154 11.6737 109.846 11.3705C109.538 11.0673 109.115 10.9157 108.615 10.9157C107.807 10.9157 107.077 11.2568 106.461 11.9769C106.461 12.024 106.468 12.0775 106.476 12.1402C106.487 12.229 106.5 12.3364 106.5 12.4697V19.2541H103.384V12.6592C103.384 12.0906 103.231 11.6737 102.923 11.3705C102.615 11.0673 102.192 10.9157 101.692 10.9157C100.807 10.9157 100.038 11.3326 99.3459 12.2043V19.2541H99.269ZM118.346 7.04966C118.692 6.74644 118.884 6.29162 118.884 5.72309C118.884 5.15456 118.692 4.69974 118.346 4.43443C117.961 4.13121 117.538 3.9796 117 3.9796C116.461 3.9796 116.038 4.13121 115.692 4.43443C115.346 4.73764 115.154 5.15456 115.154 5.72309C115.154 6.32952 115.346 6.74644 115.692 7.04966C116.038 7.35287 116.461 7.50448 117 7.50448C117.538 7.50448 118 7.35287 118.346 7.04966ZM115.461 19.2541H118.615V8.52783H115.461V19.2541ZM127.154 8.22459C125.749 8.22459 124.569 8.74174 123.577 9.84896V8.52781H120.769V19.254H123.923V12.2422C124.538 11.3325 125.346 10.8777 126.346 10.8777C127 10.8777 127.5 11.0672 127.884 11.4084C128.269 11.7874 128.461 12.318 128.461 13.0002V19.2919H131.577V12.6591C131.577 11.3704 131.192 10.3092 130.423 9.47536C129.615 8.64151 128.538 8.22459 127.154 8.22459Z" fill="white"/>
<path fill-rule="evenodd" clip-rule="evenodd" d="M9.57692 4.66193C9.73077 4.47242 9.88462 4.32081 10.0385 4.1692C11.1538 3.07005 12.6538 2.46362 14.2308 2.46362C15.8077 2.46362 17.3077 3.07005 18.4231 4.1692C18.5 4.24501 18.5769 4.33029 18.6538 4.41557C18.7307 4.50084 18.8077 4.58614 18.8846 4.66193C19.1538 5.00305 19.3846 5.34416 19.5769 5.72318C19.9615 6.48122 20.1538 7.31506 20.1538 8.1868C20.1538 8.56582 20.1154 8.94484 20.0769 9.28596C19.9615 10.0061 19.6923 10.6883 19.2692 11.3327C19.0769 11.6359 18.8462 11.9391 18.5769 12.2423L17.7692 11.4464L16.8462 10.5367C16.8345 10.5482 16.8193 10.5597 16.8028 10.5722C16.7646 10.601 16.7191 10.6355 16.6923 10.6883L15 12.2802L15.9615 13.2277L16.7692 14.0237L18.3846 15.6156C18.3963 15.627 18.4079 15.642 18.4206 15.6583C18.4499 15.6959 18.4848 15.7407 18.5385 15.7672C18.8077 16.0325 19.0385 16.3357 19.2308 16.6768C19.6538 17.3211 19.8846 18.0034 20.0385 18.7235C20.9231 18.7235 21.7308 18.4961 22.4615 18.0792C22.2308 16.9421 21.7692 15.8809 21.0385 14.8954C20.8077 14.5922 20.5769 14.289 20.3077 14.0237C20.5769 13.7584 20.8077 13.4552 21.0385 13.1519C21.7692 12.1665 22.2308 11.1052 22.4615 9.96819C22.5385 9.58917 22.6154 9.17225 22.6154 8.79323V8.30051C22.6154 7.54247 22.5 6.78443 22.3077 6.0264C22.1923 5.60947 22.0385 5.19255 21.8462 4.77563C21.4615 3.94179 20.8846 3.14585 20.1923 2.42572C18.5769 0.871743 16.4615 0 14.1923 0C11.9615 0 9.84615 0.871743 8.23077 2.42572C7.53846 3.10795 6.96154 3.90389 6.57692 4.77563C7.15385 4.66193 7.76923 4.62403 8.38462 4.62403C8.80769 4.58612 9.19231 4.62403 9.57692 4.66193ZM4.23077 18.1171C4.38461 18.2687 4.53846 18.4203 4.73077 18.5719C4.69231 18.9509 4.65385 19.3299 4.69231 19.671C4.69231 20.2775 4.73077 20.8839 4.84615 21.4524C3.96154 21.0734 3.15385 20.5049 2.46154 19.8226C0.884615 18.2687 0 16.1841 0 13.9858C0 11.7874 0.884615 9.70284 2.53846 8.03516C3.23077 7.35292 4.03846 6.8223 4.92308 6.40538C5.30769 6.21587 5.76923 6.06426 6.19231 5.95056C6.92308 5.76105 7.69231 5.64734 8.46154 5.64734H8.96154L9.05778 5.65677C9.41592 5.69178 9.80106 5.72942 10.1538 5.79895C11.3077 6.02636 12.4231 6.51908 13.3846 7.20132C13.6923 7.42873 14 7.65614 14.2692 7.92145C14.5385 7.65614 14.8461 7.42874 15.1538 7.20133C16.1154 6.51909 17.2308 6.02636 18.3846 5.79895C18.8077 6.51908 19.0385 7.31502 19.0385 8.18677C18.3077 8.33837 17.5769 8.60369 16.9615 8.9827C16.6154 9.17221 16.3077 9.39962 16.0385 9.66494L15.8846 9.81654L14.2692 11.4084L13.4615 12.2044L12.5 13.1519L10.8846 11.56C10.831 11.5336 10.796 11.4888 10.7668 11.4512C10.7541 11.4348 10.7424 11.4199 10.7308 11.4084L11.6538 10.4988L12.4615 9.70284C12.1538 9.43753 11.8462 9.21012 11.5385 9.02061C10.9231 8.60369 10.1923 8.33837 9.46154 8.22467C9.1154 8.18677 8.76922 8.14886 8.42308 8.14886H8.30769C7.42308 8.14886 6.57692 8.33837 5.80769 8.71739C5.42308 8.9069 5.07692 9.13431 4.73077 9.39962C4.65385 9.47543 4.56731 9.55123 4.48077 9.62704C4.39423 9.70284 4.30769 9.77864 4.23077 9.85445C3.11538 10.9536 2.5 12.4318 2.5 13.9858C2.5 15.5397 3.11538 17.0179 4.23077 18.1171ZM23.5767 6.51953C24.4613 6.89855 25.269 7.46708 25.9613 8.14931C27.5382 9.70329 28.4229 11.7879 28.3844 14.0241C28.3844 16.2603 27.4998 18.3449 25.9229 19.8989C25.2305 20.5811 24.4229 21.1117 23.5382 21.5287C23.4805 21.5476 23.4229 21.576 23.3652 21.6045C23.3075 21.6329 23.2498 21.6613 23.1921 21.6803C22.8844 21.794 22.5767 21.9077 22.269 21.9835C21.5382 22.173 20.769 22.2867 19.9998 22.2867H19.4998L19.4035 22.2773C19.0454 22.2423 18.6602 22.2046 18.3075 22.1351C17.1536 21.9077 16.0382 21.415 15.0767 20.7327C14.769 20.5053 14.4613 20.2779 14.1921 20.0126C13.9229 20.2779 13.6152 20.5053 13.3075 20.7327C12.3459 21.415 11.2305 21.9077 10.0767 22.1351C9.65362 21.415 9.42285 20.619 9.42285 19.7473C10.1536 19.6336 10.8844 19.3304 11.4998 18.9513C11.8459 18.7618 12.1536 18.5344 12.4229 18.2691L12.5767 18.1175L14.1921 16.5256L14.9998 15.7297L15.9613 14.7821L17.4998 16.4498C17.5534 16.4762 17.5883 16.5211 17.6176 16.5587C17.6303 16.575 17.642 16.59 17.6536 16.6014L16.7305 17.5111L15.9229 18.307C16.2305 18.5723 16.5382 18.7997 16.8459 18.9892C17.4613 19.4062 18.1921 19.6715 18.9229 19.7852C19.269 19.8231 19.6152 19.861 19.9613 19.861H20.0767C20.9613 19.861 21.8075 19.6715 22.5767 19.2925C22.9613 19.103 23.3075 18.8755 23.6536 18.6102C23.7305 18.5344 23.8171 18.4586 23.9036 18.3828C23.9902 18.307 24.0767 18.2312 24.1536 18.1554C24.6921 17.5869 25.1152 16.9425 25.4228 16.2603C25.7305 15.5402 25.8844 14.7821 25.8844 14.0241C25.8844 12.4701 25.269 10.992 24.1536 9.8928C23.9998 9.7412 23.8459 9.58957 23.6536 9.43797C23.6921 9.09686 23.7305 8.67994 23.7305 8.30092C23.7305 7.69449 23.6921 7.08806 23.5767 6.51953ZM18.8044 23.3994C18.8181 23.3825 18.832 23.3653 18.8462 23.3478C19.2308 23.3857 19.6154 23.3857 19.9616 23.3857C20.5769 23.3857 21.1923 23.3478 21.7692 23.2341C21.3846 24.1059 20.8077 24.9018 20.1154 25.584C16.8462 28.8057 11.5 28.8057 8.23079 25.584C7.53848 24.8639 6.96156 24.068 6.57694 23.2341C6.38463 22.8172 6.23079 22.4003 6.1154 21.9834C5.92309 21.2253 5.80771 20.4673 5.80771 19.7093V19.2165C5.80771 18.8375 5.88463 18.4206 5.96156 18.0416C6.19233 16.9045 6.65386 15.8433 7.38463 14.8578C7.6154 14.5546 7.84617 14.2514 8.1154 13.9861C7.84618 13.7208 7.61541 13.4176 7.38465 13.1144C6.65388 12.129 6.19233 11.0676 5.96156 9.93057C6.69233 9.51365 7.53848 9.28624 8.38463 9.28624C8.50002 10.0064 8.76925 10.6886 9.19232 11.3329C9.38463 11.6741 9.6154 11.9773 9.88463 12.2426C9.93827 12.269 9.9732 12.3139 10.0025 12.3514C10.0152 12.3678 10.0268 12.3827 10.0385 12.3942L11.6539 13.9861L12.4616 14.782L13.3846 15.6917L11.7692 17.2835C11.7424 17.3364 11.6969 17.3708 11.6588 17.3997C11.6422 17.4122 11.627 17.4237 11.6154 17.4351L10.6923 16.5255L9.88463 15.7296C9.6154 16.0328 9.38463 16.336 9.19232 16.6392C8.76925 17.2835 8.50002 17.9658 8.38463 18.6859C8.34617 19.0649 8.30771 19.4439 8.30771 19.823C8.30771 20.6947 8.50002 21.5285 8.88463 22.2866C9.07694 22.6656 9.30771 23.0067 9.57694 23.3478C9.65386 23.4236 9.73079 23.5089 9.80771 23.5942C9.88463 23.6795 9.96156 23.7648 10.0385 23.8406C12.3462 26.1147 16.0769 26.1147 18.3846 23.8406C18.5592 23.703 18.6703 23.5654 18.8044 23.3994Z" fill="white"/>
</g>
<defs>
<clipPath id="clip0_2041_27543">
<rect width="145" height="28" fill="white"/>
</clipPath>
</defs>
</svg>
