<svg width="29" height="28" viewBox="0 0 29 28" fill="none" xmlns="http://www.w3.org/2000/svg">
<path fill-rule="evenodd" clip-rule="evenodd" d="M9.57692 4.66193C9.73077 4.47242 9.88462 4.32081 10.0385 4.1692C11.1538 3.07005 12.6538 2.46362 14.2308 2.46362C15.8077 2.46362 17.3077 3.07005 18.4231 4.1692C18.5 4.24501 18.5769 4.33029 18.6538 4.41557C18.7307 4.50084 18.8077 4.58614 18.8846 4.66193C19.1538 5.00305 19.3846 5.34416 19.5769 5.72318C19.9615 6.48122 20.1538 7.31506 20.1538 8.1868C20.1538 8.56582 20.1154 8.94484 20.0769 9.28596C19.9615 10.0061 19.6923 10.6883 19.2692 11.3327C19.0769 11.6359 18.8462 11.9391 18.5769 12.2423L17.7692 11.4464L16.8462 10.5367C16.8345 10.5482 16.8193 10.5597 16.8028 10.5722C16.7646 10.601 16.7191 10.6355 16.6923 10.6883L15 12.2802L15.9615 13.2277L16.7692 14.0237L18.3846 15.6156C18.3963 15.627 18.4079 15.642 18.4206 15.6583C18.4499 15.6959 18.4848 15.7407 18.5385 15.7672C18.8077 16.0325 19.0385 16.3357 19.2308 16.6768C19.6538 17.3211 19.8846 18.0034 20.0385 18.7235C20.9231 18.7235 21.7308 18.4961 22.4615 18.0792C22.2308 16.9421 21.7692 15.8809 21.0385 14.8954C20.8077 14.5922 20.5769 14.289 20.3077 14.0237C20.5769 13.7584 20.8077 13.4552 21.0385 13.1519C21.7692 12.1665 22.2308 11.1052 22.4615 9.96819C22.5385 9.58917 22.6154 9.17225 22.6154 8.79323V8.30051C22.6154 7.54247 22.5 6.78443 22.3077 6.0264C22.1923 5.60947 22.0385 5.19255 21.8462 4.77563C21.4615 3.94179 20.8846 3.14585 20.1923 2.42572C18.5769 0.871743 16.4615 0 14.1923 0C11.9615 0 9.84615 0.871743 8.23077 2.42572C7.53846 3.10795 6.96154 3.90389 6.57692 4.77563C7.15385 4.66193 7.76923 4.62403 8.38462 4.62403C8.80769 4.58612 9.19231 4.62403 9.57692 4.66193ZM4.23077 18.1171C4.38461 18.2687 4.53846 18.4203 4.73077 18.5719C4.69231 18.9509 4.65385 19.3299 4.69231 19.671C4.69231 20.2775 4.73077 20.8839 4.84615 21.4524C3.96154 21.0734 3.15385 20.5049 2.46154 19.8226C0.884615 18.2687 0 16.1841 0 13.9858C0 11.7874 0.884615 9.70284 2.53846 8.03516C3.23077 7.35292 4.03846 6.8223 4.92308 6.40538C5.30769 6.21587 5.76923 6.06426 6.19231 5.95056C6.92308 5.76105 7.69231 5.64734 8.46154 5.64734H8.96154L9.05778 5.65677C9.41592 5.69178 9.80106 5.72942 10.1538 5.79895C11.3077 6.02636 12.4231 6.51908 13.3846 7.20132C13.6923 7.42873 14 7.65614 14.2692 7.92145C14.5385 7.65614 14.8461 7.42874 15.1538 7.20133C16.1154 6.51909 17.2308 6.02636 18.3846 5.79895C18.8077 6.51908 19.0385 7.31502 19.0385 8.18677C18.3077 8.33837 17.5769 8.60369 16.9615 8.9827C16.6154 9.17221 16.3077 9.39962 16.0385 9.66494L15.8846 9.81654L14.2692 11.4084L13.4615 12.2044L12.5 13.1519L10.8846 11.56C10.831 11.5336 10.796 11.4888 10.7668 11.4512C10.7541 11.4348 10.7424 11.4199 10.7308 11.4084L11.6538 10.4988L12.4615 9.70284C12.1538 9.43753 11.8462 9.21012 11.5385 9.02061C10.9231 8.60369 10.1923 8.33837 9.46154 8.22467C9.1154 8.18677 8.76922 8.14886 8.42308 8.14886H8.30769C7.42308 8.14886 6.57692 8.33837 5.80769 8.71739C5.42308 8.9069 5.07692 9.13431 4.73077 9.39962C4.65385 9.47543 4.56731 9.55123 4.48077 9.62704C4.39423 9.70284 4.30769 9.77864 4.23077 9.85445C3.11538 10.9536 2.5 12.4318 2.5 13.9858C2.5 15.5397 3.11538 17.0179 4.23077 18.1171ZM23.5767 6.51953C24.4613 6.89855 25.269 7.46708 25.9613 8.14931C27.5382 9.70329 28.4229 11.7879 28.3844 14.0241C28.3844 16.2603 27.4998 18.3449 25.9229 19.8989C25.2305 20.5811 24.4229 21.1117 23.5382 21.5287C23.4805 21.5476 23.4229 21.576 23.3652 21.6045C23.3075 21.6329 23.2498 21.6613 23.1921 21.6803C22.8844 21.794 22.5767 21.9077 22.269 21.9835C21.5382 22.173 20.769 22.2867 19.9998 22.2867H19.4998L19.4035 22.2773C19.0454 22.2423 18.6602 22.2046 18.3075 22.1351C17.1536 21.9077 16.0382 21.415 15.0767 20.7327C14.769 20.5053 14.4613 20.2779 14.1921 20.0126C13.9229 20.2779 13.6152 20.5053 13.3075 20.7327C12.3459 21.415 11.2305 21.9077 10.0767 22.1351C9.65362 21.415 9.42285 20.619 9.42285 19.7473C10.1536 19.6336 10.8844 19.3304 11.4998 18.9513C11.8459 18.7618 12.1536 18.5344 12.4229 18.2691L12.5767 18.1175L14.1921 16.5256L14.9998 15.7297L15.9613 14.7821L17.4998 16.4498C17.5534 16.4762 17.5883 16.5211 17.6176 16.5587C17.6303 16.575 17.642 16.59 17.6536 16.6014L16.7305 17.5111L15.9229 18.307C16.2305 18.5723 16.5382 18.7997 16.8459 18.9892C17.4613 19.4062 18.1921 19.6715 18.9229 19.7852C19.269 19.8231 19.6152 19.861 19.9613 19.861H20.0767C20.9613 19.861 21.8075 19.6715 22.5767 19.2925C22.9613 19.103 23.3075 18.8755 23.6536 18.6102C23.7305 18.5344 23.8171 18.4586 23.9036 18.3828C23.9902 18.307 24.0767 18.2312 24.1536 18.1554C24.6921 17.5869 25.1152 16.9425 25.4228 16.2603C25.7305 15.5402 25.8844 14.7821 25.8844 14.0241C25.8844 12.4701 25.269 10.992 24.1536 9.8928C23.9998 9.7412 23.8459 9.58957 23.6536 9.43797C23.6921 9.09686 23.7305 8.67994 23.7305 8.30092C23.7305 7.69449 23.6921 7.08806 23.5767 6.51953ZM18.8044 23.3994C18.8181 23.3825 18.832 23.3653 18.8462 23.3478C19.2308 23.3857 19.6154 23.3857 19.9616 23.3857C20.5769 23.3857 21.1923 23.3478 21.7692 23.2341C21.3846 24.1059 20.8077 24.9018 20.1154 25.584C16.8462 28.8057 11.5 28.8057 8.23079 25.584C7.53848 24.8639 6.96156 24.068 6.57694 23.2341C6.38463 22.8172 6.23079 22.4003 6.1154 21.9834C5.92309 21.2253 5.80771 20.4673 5.80771 19.7093V19.2165C5.80771 18.8375 5.88463 18.4206 5.96156 18.0416C6.19233 16.9045 6.65386 15.8433 7.38463 14.8578C7.6154 14.5546 7.84617 14.2514 8.1154 13.9861C7.84618 13.7208 7.61541 13.4176 7.38465 13.1144C6.65388 12.129 6.19233 11.0676 5.96156 9.93057C6.69233 9.51365 7.53848 9.28624 8.38463 9.28624C8.50002 10.0064 8.76925 10.6886 9.19232 11.3329C9.38463 11.6741 9.6154 11.9773 9.88463 12.2426C9.93827 12.269 9.9732 12.3139 10.0025 12.3514C10.0152 12.3678 10.0268 12.3827 10.0385 12.3942L11.6539 13.9861L12.4616 14.782L13.3846 15.6917L11.7692 17.2835C11.7424 17.3364 11.6969 17.3708 11.6588 17.3997C11.6422 17.4122 11.627 17.4237 11.6154 17.4351L10.6923 16.5255L9.88463 15.7296C9.6154 16.0328 9.38463 16.336 9.19232 16.6392C8.76925 17.2835 8.50002 17.9658 8.38463 18.6859C8.34617 19.0649 8.30771 19.4439 8.30771 19.823C8.30771 20.6947 8.50002 21.5285 8.88463 22.2866C9.07694 22.6656 9.30771 23.0067 9.57694 23.3478C9.65386 23.4236 9.73079 23.5089 9.80771 23.5942C9.88463 23.6795 9.96156 23.7648 10.0385 23.8406C12.3462 26.1147 16.0769 26.1147 18.3846 23.8406C18.5592 23.703 18.6703 23.5654 18.8044 23.3994Z" fill="white"/>
</svg>
