<svg width="160" height="72" viewBox="0 0 160 72" fill="none" xmlns="http://www.w3.org/2000/svg">
<g clip-path="url(#clip0_2041_36152)">
<path fill-rule="evenodd" clip-rule="evenodd" d="M73.4059 7.23021C73.6257 6.95948 73.8455 6.7429 74.0653 6.52631C75.6586 4.9561 77.8015 4.08977 80.0543 4.08977C82.307 4.08977 84.4499 4.9561 86.0433 6.52631C86.1532 6.63461 86.263 6.75644 86.3729 6.87827C86.4828 7.00008 86.5928 7.12194 86.7026 7.23021C87.0872 7.71753 87.4169 8.20483 87.6916 8.74628C88.241 9.8292 88.5158 11.0204 88.5158 12.2657C88.5158 12.8072 88.4609 13.3487 88.4059 13.836C88.241 14.8647 87.8565 15.8393 87.252 16.7599C86.9773 17.193 86.6478 17.6262 86.263 18.0593L85.1092 16.9223L83.7906 15.6227C83.7739 15.6392 83.7522 15.6556 83.7286 15.6735C83.674 15.7146 83.609 15.7639 83.5708 15.8393L81.1532 18.1135L82.5268 19.467L83.6806 20.6042L85.9883 22.8783C86.005 22.8946 86.0216 22.916 86.0398 22.9393C86.0816 22.993 86.1315 23.057 86.2082 23.0949C86.5928 23.4739 86.9225 23.907 87.1972 24.3943C87.8015 25.3147 88.1312 26.2895 88.351 27.3182C89.6148 27.3182 90.7686 26.9933 91.8125 26.3977C91.4829 24.7733 90.8235 23.2573 89.7796 21.8495C89.4499 21.4163 89.1202 20.9832 88.7356 20.6042C89.1202 20.2252 89.4499 19.792 89.7796 19.3587C90.8235 17.951 91.4829 16.4349 91.8125 14.8106C91.9225 14.2691 92.0323 13.6735 92.0323 13.1321V12.4282C92.0323 11.3453 91.8675 10.2624 91.5928 9.17945C91.4279 8.58384 91.2082 7.98824 90.9335 7.39264C90.3839 6.20144 89.5598 5.06438 88.5708 4.03563C86.263 1.81566 83.241 0.570312 79.9993 0.570312C76.8125 0.570312 73.7905 1.81566 71.4829 4.03563C70.4938 5.01024 69.6697 6.1473 69.1202 7.39264C69.9444 7.23021 70.8235 7.17607 71.7026 7.17607C72.307 7.12191 72.8565 7.17607 73.4059 7.23021ZM65.7686 26.4519C65.9883 26.6685 66.2081 26.885 66.4829 27.1016C66.4279 27.643 66.373 28.1845 66.4279 28.6717C66.4279 29.5382 66.4829 30.4045 66.6477 31.2166C65.384 30.6752 64.2301 29.863 63.2411 28.8883C60.9883 26.6685 59.7246 23.6905 59.7246 20.55C59.7246 17.4095 60.9883 14.4315 63.351 12.0491C64.34 11.0745 65.4938 10.3165 66.7576 9.72085C67.307 9.45013 67.9664 9.23354 68.5708 9.07111C69.6147 8.80038 70.7136 8.63794 71.8125 8.63794H72.5268L72.6643 8.65141C73.1759 8.70143 73.7261 8.7552 74.23 8.85453C75.8785 9.1794 77.4719 9.88328 78.8455 10.8579C79.285 11.1828 79.7246 11.5077 80.1092 11.8867C80.4939 11.5077 80.9333 11.1828 81.3729 10.8579C82.7466 9.8833 84.34 9.1794 85.9883 8.85453C86.5928 9.88328 86.9225 11.0203 86.9225 12.2657C85.8785 12.4823 84.8345 12.8613 83.9553 13.4027C83.4609 13.6735 83.0213 13.9983 82.6368 14.3774L82.4169 14.5939L80.1092 16.868L78.9553 18.0052L77.5818 19.3587L75.274 17.0846C75.1975 17.0469 75.1475 16.9829 75.1058 16.9292C75.0876 16.9057 75.0709 16.8845 75.0543 16.868L76.3729 15.5686L77.5268 14.4315C77.0872 14.0525 76.6478 13.7276 76.2082 13.4569C75.329 12.8613 74.285 12.4823 73.2411 12.3198C72.7466 12.2657 72.2521 12.2115 71.7576 12.2115H71.5927C70.329 12.2115 69.1202 12.4823 68.0213 13.0237C67.4719 13.2945 66.9774 13.6193 66.4829 13.9983C66.373 14.1066 66.2493 14.2149 66.1257 14.3232C66.0021 14.4315 65.8785 14.5398 65.7686 14.6481C64.1752 16.2183 63.296 18.33 63.296 20.55C63.296 22.7699 64.1752 24.8816 65.7686 26.4519ZM93.4056 9.88393C94.6693 10.4254 95.8232 11.2376 96.8122 12.2122C99.0649 14.4322 100.329 17.4102 100.274 20.6047C100.274 23.7993 99.01 26.7773 96.7573 28.9973C95.7682 29.9719 94.6145 30.7299 93.3506 31.3256C93.2682 31.3526 93.1859 31.3932 93.1035 31.4339C93.021 31.4745 92.9386 31.515 92.8562 31.5422C92.4166 31.7046 91.977 31.867 91.5375 31.9753C90.4935 32.246 89.3946 32.4085 88.2958 32.4085H87.5815L87.4439 32.395C86.9323 32.345 86.382 32.2912 85.8782 32.1919C84.2298 31.867 82.6363 31.1632 81.2628 30.1885C80.8232 29.8636 80.3836 29.5387 79.999 29.1597C79.6145 29.5387 79.1749 29.8636 78.7353 30.1885C77.3616 31.1632 75.7682 31.867 74.1199 32.1919C73.5155 31.1632 73.1858 30.026 73.1858 28.7807C74.2298 28.6183 75.2738 28.1852 76.1529 27.6436C76.6473 27.3729 77.0869 27.048 77.4716 26.669L77.6913 26.4525L79.999 24.1783L81.1529 23.0413L82.5265 21.6876L84.7243 24.07C84.8009 24.1077 84.8508 24.1719 84.8926 24.2256C84.9108 24.2489 84.9275 24.2703 84.944 24.2866L83.6253 25.5862L82.4716 26.7232C82.911 27.1022 83.3506 27.427 83.7902 27.6977C84.6693 28.2935 85.7133 28.6725 86.7573 28.8349C87.2518 28.889 87.7463 28.9432 88.2408 28.9432H88.4056C89.6693 28.9432 90.8782 28.6725 91.977 28.131C92.5265 27.8603 93.021 27.5353 93.5155 27.1563C93.6253 27.048 93.749 26.9397 93.8726 26.8315C93.9963 26.7232 94.1199 26.6149 94.2298 26.5066C94.999 25.6945 95.6035 24.7739 96.0429 23.7993C96.4825 22.7706 96.7023 21.6876 96.7023 20.6047C96.7023 18.3847 95.8232 16.2732 94.2298 14.7029C94.01 14.4863 93.7902 14.2697 93.5155 14.0531C93.5705 13.5658 93.6253 12.9702 93.6253 12.4288C93.6253 11.5624 93.5705 10.6961 93.4056 9.88393ZM86.588 33.998C86.6076 33.9739 86.6275 33.9493 86.6478 33.9243C87.1972 33.9785 87.7466 33.9785 88.2412 33.9785C89.1202 33.9785 89.9993 33.9243 90.8235 33.7619C90.274 35.0073 89.4499 36.1443 88.4609 37.1189C83.7906 41.7213 76.1532 41.7213 71.4829 37.1189C70.4939 36.0902 69.6697 34.9532 69.1202 33.7619C68.8455 33.1663 68.6257 32.5707 68.4609 31.9752C68.1862 30.8922 68.0213 29.8093 68.0213 28.7265V28.0225C68.0213 27.481 68.1312 26.8855 68.2411 26.344C68.5708 24.7196 69.2301 23.2036 70.2741 21.7957C70.6038 21.3626 70.9334 20.9295 71.318 20.5505C70.9334 20.1715 70.6038 19.7383 70.2741 19.3052C69.2302 17.8975 68.5708 16.3812 68.2411 14.7568C69.2851 14.1612 70.4939 13.8364 71.7027 13.8364C71.8675 14.8652 72.2521 15.8397 72.8565 16.7602C73.1312 17.2476 73.4609 17.6807 73.8455 18.0597C73.9221 18.0975 73.972 18.1616 74.0139 18.2152C74.032 18.2386 74.0486 18.2599 74.0653 18.2763L76.373 20.5505L77.5269 21.6875L78.8455 22.987L76.5378 25.261C76.4995 25.3366 76.4345 25.3857 76.38 25.427C76.3563 25.4449 76.3346 25.4613 76.318 25.4776L74.9993 24.1782L73.8455 23.0412C73.4609 23.4743 73.1312 23.9075 72.8565 24.3406C72.2521 25.261 71.8675 26.2357 71.7027 27.2645C71.6477 27.8059 71.5928 28.3473 71.5928 28.8889C71.5928 30.1342 71.8675 31.3253 72.4169 32.4083C72.6917 32.9497 73.0213 33.437 73.406 33.9243C73.5158 34.0326 73.6257 34.1545 73.7356 34.2763C73.8455 34.3982 73.9554 34.52 74.0653 34.6283C77.362 37.877 82.6916 37.877 85.9883 34.6283C86.2378 34.4317 86.3965 34.2352 86.588 33.998Z" fill="#361768"/>
<path fill-rule="evenodd" clip-rule="evenodd" d="M159.341 48.5708H154.945V57.1799C153.681 55.8263 151.978 55.1224 149.835 55.1224C147.472 55.1224 145.604 55.9346 144.231 57.5048C142.856 59.1291 142.088 61.0784 142.088 63.2984C142.088 65.5184 142.746 67.4675 144.121 69.0378C145.494 70.608 147.362 71.4202 149.725 71.4202C152.198 71.4202 154.065 70.4997 155.385 68.713V70.933H159.341V48.5708ZM153.296 59.6165C154.065 60.1038 154.561 60.7535 154.889 61.4574V65.0311C154.561 65.7891 154.011 66.3847 153.296 66.872C152.582 67.3592 151.758 67.63 150.824 67.63C149.561 67.63 148.571 67.251 147.856 66.3847C147.142 65.5184 146.758 64.4895 146.758 63.2442C146.758 61.9988 147.142 60.9701 147.856 60.1038C148.571 59.2917 149.561 58.8584 150.824 58.8584C151.758 58.8584 152.582 59.1291 153.296 59.6165ZM32.3625 53.498C32.8569 53.0649 33.1316 52.4151 33.1316 51.6029C33.1316 50.7908 32.8569 50.141 32.3625 49.762C31.8129 49.3288 31.2086 49.1122 30.4393 49.1122C29.67 49.1122 29.0658 49.3288 28.5712 49.762C28.0767 50.1952 27.8019 50.7908 27.8019 51.6029C27.8019 52.4693 28.0767 53.0649 28.5712 53.498C29.0658 53.9312 29.67 54.1478 30.4393 54.1478C31.2086 54.1478 31.8679 53.9312 32.3625 53.498ZM28.2415 70.933H32.747V55.6097H28.2415V70.933ZM0.65918 70.933H5.1646H5.21961V60.8618C6.20861 59.6165 7.30746 59.021 8.57118 59.021C9.28546 59.021 9.88989 59.2375 10.3295 59.6707C10.769 60.1038 10.9887 60.6994 10.9887 61.5117V70.933H15.4393V61.241C15.4393 61.0507 15.4205 60.8974 15.4049 60.7705C15.3937 60.6808 15.3843 60.6042 15.3843 60.537C16.2635 59.5082 17.3075 59.021 18.4613 59.021C19.1756 59.021 19.78 59.2375 20.2196 59.6707C20.6592 60.1038 20.8789 60.6994 20.8789 61.5117V70.8788H25.3843V61.1868C25.3843 59.6165 24.8899 58.2088 23.9557 56.9634C23.0217 55.7181 21.5382 55.1225 19.5602 55.1225C17.692 55.1225 15.9888 55.8805 14.3953 57.3966C13.3515 55.8805 11.758 55.1225 9.61518 55.1225C8.51632 55.1225 7.58218 55.3932 6.70303 55.8263C5.82389 56.3137 5.16461 56.801 4.67003 57.3966V55.6098H0.65918V70.933ZM39.8349 57.8844C40.4393 56.9639 41.2635 56.3141 42.3623 55.8268C43.4613 55.3395 44.725 55.177 46.0986 55.2853V59.617C44.8899 59.4004 43.736 59.5087 42.637 59.9418C41.5932 60.375 40.7689 61.0248 40.3295 61.9452V70.9334H35.8239V55.6102H39.8349V57.8844ZM54.2302 55.8268C53.1313 56.3141 52.3072 56.9639 51.7027 57.8844V55.6102H47.6918V70.9334H52.1972V61.9452C52.6367 61.0248 53.461 60.375 54.5049 59.9418C55.6039 59.5087 56.7578 59.4004 57.9665 59.617V55.2853C56.5929 55.177 55.3292 55.3395 54.2302 55.8268ZM60.8239 69.2544C59.1756 67.8465 58.3515 65.8432 58.3515 63.2984C58.3515 60.7535 59.1756 58.7501 60.8239 57.3423C62.4723 55.9346 64.5053 55.1765 66.9229 55.1765C69.3405 55.1765 71.3733 55.8804 73.0218 57.3423C74.67 58.7501 75.4943 60.7535 75.4943 63.2984C75.4943 65.8432 74.67 67.8465 73.0218 69.2544C71.3733 70.6621 69.3405 71.4202 66.9229 71.4202C64.5053 71.3661 62.4723 70.6621 60.8239 69.2544ZM69.8899 66.2764C70.6042 65.5184 70.9339 64.4895 70.9339 63.2984C70.9339 62.1071 70.6042 61.0784 69.8899 60.3204C69.1756 59.5622 68.1866 59.1291 66.9229 59.1291C65.6592 59.1291 64.67 59.5081 64.0107 60.3204C63.2965 61.0784 62.9668 62.1071 62.9668 63.2984C62.9668 64.4895 63.2965 65.5184 64.0107 66.2764C64.725 67.0344 65.714 67.4675 66.9229 67.4675C68.1866 67.4134 69.1756 67.0344 69.8899 66.2764ZM84.1756 55.8268C83.0768 56.3141 82.2526 56.9639 81.6482 57.8844V55.6102H77.6372V70.9334H82.1426V61.9452C82.5822 61.0248 83.4065 60.375 84.4503 59.9418C85.5493 59.5087 86.7032 59.4004 87.9119 59.617V55.2853C86.5383 55.177 85.2745 55.3395 84.1756 55.8268ZM94.0107 70.933H89.5053V55.6098H93.5163V57.3966C94.0107 56.801 94.67 56.3137 95.5493 55.8263C96.4279 55.3932 97.3622 55.1225 98.4608 55.1225C100.604 55.1225 102.198 55.8805 103.242 57.3966C104.835 55.8805 106.538 55.1225 108.406 55.1225C110.385 55.1225 111.868 55.7181 112.802 56.9634C113.736 58.2088 114.231 59.6165 114.231 61.1868V70.8788H109.779V61.5117C109.779 60.6994 109.561 60.1038 109.121 59.6707C108.681 59.2375 108.076 59.021 107.362 59.021C106.208 59.021 105.165 59.5082 104.285 60.537C104.285 60.6042 104.295 60.6807 104.306 60.7702C104.322 60.8971 104.341 61.0505 104.341 61.241V70.933H99.8893V61.5117C99.8893 60.6994 99.6707 60.1038 99.2307 59.6707C98.7907 59.2375 98.1865 59.021 97.4722 59.021C96.2079 59.021 95.1093 59.6165 94.1206 60.8618V70.933H94.0107ZM121.264 53.498C121.758 53.0649 122.032 52.4151 122.032 51.6029C122.032 50.7908 121.758 50.141 121.264 49.762C120.714 49.3288 120.109 49.1122 119.341 49.1122C118.571 49.1122 117.966 49.3288 117.472 49.762C116.978 50.1952 116.704 50.7908 116.704 51.6029C116.704 52.4693 116.978 53.0649 117.472 53.498C117.966 53.9312 118.571 54.1478 119.341 54.1478C120.109 54.1478 120.769 53.9312 121.264 53.498ZM117.142 70.933H121.648V55.6097H117.142V70.933ZM133.846 55.1765C131.839 55.1765 130.154 55.9153 128.736 57.497V55.6097H124.725V70.9328H129.231V60.916C130.109 59.6164 131.264 58.9667 132.692 58.9667C133.626 58.9667 134.341 59.2374 134.889 59.7248C135.439 60.2662 135.714 61.0242 135.714 61.9988V70.987H140.165V61.5115C140.165 59.6705 139.615 58.1545 138.516 56.9633C137.362 55.7721 135.824 55.1765 133.846 55.1765Z" fill="white"/>
</g>
<defs>
<clipPath id="clip0_2041_36152">
<rect width="158.682" height="70.8498" fill="white" transform="translate(0.65918 0.570312)"/>
</clipPath>
</defs>
</svg>
