<svg viewBox="0 0 24 24"  xmlns="http://www.w3.org/2000/svg" style="display:none">

	<symbol viewBox="0 0 136 174" id="logo">
		<path fill-rule="evenodd" clip-rule="evenodd" d="M60.9545 30.283C61.9337 29.052 62.9128 28.0671 63.8919 27.0823C70.9911 19.9424 80.5382 16.0032 90.5748 16.0032C100.612 16.0032 110.159 19.9424 117.258 27.0823C117.747 27.5747 118.237 28.1287 118.726 28.6826C119.216 29.2366 119.706 29.7906 120.195 30.283C121.909 32.4988 123.378 34.7146 124.602 37.1768C127.05 42.1007 128.274 47.5171 128.274 53.1797C128.274 55.6419 128.029 58.104 127.784 60.3196C127.05 64.9977 125.336 69.4293 122.643 73.6146C121.419 75.5843 119.95 77.554 118.237 79.5234L113.096 74.3532L107.221 68.4444C107.147 68.5188 107.051 68.5936 106.945 68.6748C106.702 68.8624 106.413 69.086 106.242 69.4292L95.4708 79.7696L101.591 85.925L106.732 91.0952L117.013 101.436C117.087 101.51 117.161 101.607 117.242 101.713C117.428 101.957 117.651 102.249 117.992 102.42C119.706 104.144 121.174 106.114 122.398 108.329C125.091 112.515 126.56 116.946 127.539 121.624C133.17 121.624 138.311 120.147 142.962 117.439C141.493 110.053 138.555 103.159 133.904 96.7578C132.435 94.7884 130.966 92.8183 129.253 91.0952C130.966 89.3717 132.435 87.4023 133.904 85.4325C138.555 79.0313 141.493 72.1376 142.962 64.7515C143.451 62.2894 143.941 59.581 143.941 57.1192V53.9184C143.941 48.9944 143.206 44.0705 141.983 39.1462C141.248 36.4381 140.269 33.7298 139.045 31.0216C136.597 25.6051 132.925 20.4348 128.518 15.757C118.237 5.66268 104.773 0 90.3302 0C76.132 0 62.6679 5.66268 52.3865 15.757C47.9803 20.1887 44.3083 25.3589 41.8602 31.0216C45.5323 30.283 49.4491 30.0367 53.3657 30.0367C56.0585 29.7906 58.5065 30.0368 60.9545 30.283ZM26.9277 117.685C27.9069 118.67 28.8861 119.654 30.11 120.639C29.8652 123.101 29.6204 125.563 29.8652 127.779C29.8652 131.718 30.11 135.658 30.8444 139.351C25.2141 136.889 20.0734 133.196 15.667 128.764C5.63034 118.67 0 105.128 0 90.8486C0 76.5688 5.63034 63.0277 16.1566 52.1949C20.563 47.763 25.7037 44.3163 31.334 41.608C33.782 40.3769 36.7197 39.3924 39.4122 38.6537C44.0634 37.4227 48.9594 36.684 53.8554 36.684H57.0377L57.6503 36.7453C59.9296 36.9727 62.381 37.2172 64.6265 37.6689C71.9702 39.1462 79.0694 42.3466 85.1894 46.7785C87.1476 48.2554 89.1062 49.7327 90.8196 51.4562C92.5334 49.7327 94.4916 48.2554 96.4499 46.7785C102.57 42.3466 109.669 39.1462 117.013 37.6689C119.706 42.3466 121.174 47.5168 121.174 53.1797C116.523 54.1643 111.872 55.8878 107.956 58.3499C105.752 59.581 103.794 61.0579 102.081 62.7814L101.101 63.7663L90.8196 74.107L85.6791 79.2772L79.5591 85.4322L69.2777 75.0915C68.9361 74.9201 68.7139 74.6287 68.5276 74.3845C68.4468 74.2784 68.3727 74.1814 68.2986 74.107L74.1734 68.1978L79.3142 63.0277C77.356 61.3042 75.3974 59.8272 73.4391 58.5961C69.5222 55.8878 64.8711 54.1643 60.2199 53.426C58.0168 53.1797 55.8137 52.9335 53.6105 52.9335H52.8763C47.246 52.9335 41.8602 54.1643 36.9642 56.6264C34.5162 57.8575 32.3132 59.3348 30.11 61.0579C29.6204 61.5504 29.0697 62.0428 28.5189 62.5352C27.9681 63.0277 27.4173 63.5201 26.9277 64.0125C19.8286 71.1524 15.9118 80.7545 15.9118 90.8486C15.9118 100.943 19.8286 110.545 26.9277 117.685ZM150.061 42.347C155.691 44.8088 160.832 48.502 165.238 52.9335C175.275 63.028 180.905 76.5691 180.66 91.0952C180.66 105.621 175.03 119.162 164.993 129.256C160.587 133.688 155.446 137.135 149.816 139.843C149.449 139.966 149.081 140.151 148.714 140.335C148.347 140.52 147.98 140.705 147.613 140.828C145.655 141.567 143.696 142.305 141.738 142.798C137.087 144.029 132.19 144.767 127.294 144.767H124.112L123.5 144.706C121.22 144.479 118.769 144.234 116.523 143.782C109.18 142.305 102.081 139.105 95.9605 134.673C94.0023 133.196 92.0436 131.719 90.3302 129.995C88.6165 131.719 86.6582 133.196 84.6996 134.673C78.58 139.105 71.4808 142.305 64.1368 143.782C61.4439 139.105 59.9754 133.934 59.9754 128.272C64.6265 127.533 69.2777 125.564 73.1942 123.101C75.3974 121.87 77.356 120.393 79.0694 118.67L80.0485 117.685L90.3302 107.344L95.4708 102.174L101.591 96.0191L111.383 106.852C111.724 107.024 111.946 107.315 112.133 107.559C112.214 107.665 112.288 107.762 112.362 107.837L106.487 113.746L101.346 118.916C103.305 120.639 105.263 122.117 107.221 123.348C111.138 126.056 115.789 127.779 120.44 128.518C122.643 128.764 124.846 129.01 127.05 129.01H127.784C133.414 129.01 138.8 127.779 143.696 125.317C146.144 124.086 148.347 122.609 150.55 120.885C151.04 120.393 151.59 119.901 152.141 119.409C152.692 118.916 153.243 118.423 153.732 117.931C157.16 114.238 159.852 110.053 161.811 105.621C163.769 100.943 164.748 96.0191 164.748 91.0952C164.748 81.0007 160.832 71.3986 153.732 64.2587C152.753 63.2739 151.774 62.289 150.55 61.3045C150.795 59.0886 151.04 56.3802 151.04 53.9184C151.04 49.9789 150.795 46.0398 150.061 42.347ZM119.685 151.996C119.772 151.886 119.86 151.775 119.95 151.661C122.398 151.907 124.846 151.907 127.05 151.907C130.966 151.907 134.883 151.661 138.555 150.922C136.107 156.585 132.435 161.755 128.029 166.187C107.221 187.114 73.1942 187.114 52.3865 166.187C47.9803 161.509 44.3083 156.339 41.8602 150.922C40.6362 148.214 39.6571 145.506 38.9228 142.798C37.6988 137.874 36.9642 132.95 36.9642 128.026V124.825C36.9642 122.363 37.454 119.655 37.9437 117.193C39.4122 109.806 42.35 102.913 47.0011 96.5115C48.47 94.5418 49.9385 92.5724 51.6523 90.8489C49.9385 89.1254 48.47 87.1561 47.0011 85.1863C42.35 78.7851 39.4122 71.8914 37.9437 64.5053C42.5949 61.7969 47.9803 60.3196 53.3657 60.3196C54.1003 64.9977 55.8137 69.4293 58.5065 73.6146C59.7305 75.8305 61.1994 77.8002 62.9128 79.5237C63.2543 79.6952 63.4766 79.9865 63.6629 80.2307C63.7437 80.3368 63.8178 80.4338 63.8919 80.5082L74.1737 90.8489L79.3142 96.0191L85.1894 101.928L74.908 112.269C74.7372 112.612 74.4475 112.836 74.2047 113.023C74.0996 113.104 74.0029 113.179 73.9288 113.253L68.0537 107.344L62.9128 102.174C61.1994 104.144 59.7305 106.114 58.5065 108.083C55.8137 112.269 54.1003 116.7 53.3657 121.378C53.1211 123.84 52.8763 126.302 52.8763 128.764C52.8763 134.427 54.1003 139.843 56.5483 144.767C57.7723 147.229 59.2408 149.445 60.9545 151.661C61.4439 152.153 61.9337 152.707 62.4234 153.261C62.9128 153.815 63.4025 154.369 63.8919 154.862C78.58 169.634 102.325 169.634 117.013 154.862C118.124 153.968 118.832 153.074 119.685 151.996Z" fill="currentColor" />
	</symbol>

	<symbol viewBox="0 0 14 14" id="arrow-prev">
		<path fill-rule="evenodd" clip-rule="evenodd" d="M9.00163 0.71811C9.37537 0.32692 10 0.32692 10.3738 0.71811C10.7242 1.08485 10.7242 1.6623 10.3738 2.02904L5.62459 7L10.3738 11.971C10.7242 12.3377 10.7242 12.9152 10.3738 13.2819C10 13.6731 9.37537 13.6731 9.00163 13.2819L3 7L9.00163 0.71811Z" fill="currentColor" />
	</symbol>

	<symbol viewBox="0 0 14 14" id="arrow-next">
		<path fill-rule="evenodd" clip-rule="evenodd" d="M4.99837 0.71811C4.62463 0.32692 3.99996 0.32692 3.62622 0.71811C3.27584 1.08485 3.27584 1.6623 3.62622 2.02904L8.37541 7L3.62622 11.971C3.27584 12.3377 3.27584 12.9152 3.62622 13.2819C3.99996 13.6731 4.62463 13.6731 4.99837 13.2819L11 7L4.99837 0.71811Z" fill="currentColor" />
	</symbol>

	<symbol viewBox="0 0 17 16" id="calendar-category-1">
		<path d="M8.49998 3.85639C8.15466 3.42474 7.70861 3.08632 7.16185 2.84114C6.61509 2.59711 6.02516 2.4751 5.39207 2.4751C4.3561 2.4751 3.46401 2.8492 2.71581 3.5974C1.96761 4.3456 1.59351 5.23769 1.59351 6.27366C1.59351 7.16575 1.81624 8.00028 2.26171 8.77726C2.70833 9.55424 3.78056 10.7197 5.4784 12.2737L7.33451 14.0003C7.65106 14.3168 8.03955 14.4751 8.49998 14.4751C8.96041 14.4751 9.3489 14.3168 9.66545 14.0003L11.4784 12.3168C13.1475 10.7629 14.2197 9.58301 14.6951 8.77726C15.1693 7.9715 15.4065 7.13697 15.4065 6.27366C15.4065 5.23769 15.0324 4.3456 14.2842 3.5974C13.536 2.8492 12.6439 2.4751 11.6079 2.4751C11.0036 2.4751 10.4211 2.59711 9.86056 2.84114C9.29883 3.08632 8.8453 3.42474 8.49998 3.85639Z" fill="currentColor" />
	</symbol>

	<symbol viewBox="0 0 17 16" id="calendar-category-2">
		<path d="M5.6 12.1333C5.85333 12.4667 6 12.88 6 13.3333C6 14.44 5.10667 15.3333 4 15.3333C2.89333 15.3333 2 14.44 2 13.3333C2 12.2267 2.89333 11.3333 4 11.3333C4.29333 11.3333 4.56667 11.3933 4.82 11.5067L5.76 10.3267C5.14667 9.64 4.9 8.73333 5.03333 7.86667L3.68 7.41333C3.32 7.96667 2.70667 8.33333 2 8.33333C0.893333 8.33333 0 7.44 0 6.33333C0 5.22667 0.893333 4.33333 2 4.33333C3.10667 4.33333 4 5.22667 4 6.33333C4 6.38 4 6.42667 3.99333 6.47333L5.34667 6.92667C5.77333 6.12 6.56 5.53333 7.49333 5.38V3.94C6.64 3.71333 6 2.93333 6 2C6 0.893333 6.89333 0 8 0C9.10667 0 10 0.893333 10 2C10 2.93333 9.36 3.71333 8.5 3.94V5.38C9.43333 5.53333 10.22 6.12 10.6467 6.92667L12 6.47333C12 6.42667 12 6.38 12 6.33333C12 5.22667 12.8933 4.33333 14 4.33333C15.1067 4.33333 16 5.22667 16 6.33333C16 7.44 15.1067 8.33333 14 8.33333C13.2933 8.33333 12.68 7.96667 12.32 7.42L10.9667 7.87333C11.1 8.73333 10.86 9.64 10.24 10.3333L11.18 11.5133C11.4333 11.3933 11.7067 11.3333 12 11.3333C13.1067 11.3333 14 12.2267 14 13.3333C14 14.44 13.1067 15.3333 12 15.3333C10.8933 15.3333 10 14.44 10 13.3333C10 12.88 10.1467 12.4667 10.4 12.1333L9.46 10.9533C8.56 11.4533 7.45333 11.46 6.54667 10.9533L5.6 12.1333Z" fill="currentColor" />
	</symbol>

	<symbol viewBox="0 0 17 16" id="calendar-category-3">
		<path d="M8.61064 13.3615C7.79645 13.3615 7.01702 13.2473 6.27234 13.0189C5.52766 12.7806 4.93688 12.4778 4.5 12.1104L5.17021 10.6061C5.58723 10.9338 6.10355 11.2068 6.71915 11.4253C7.33475 11.6437 7.96525 11.7529 8.61064 11.7529C9.15674 11.7529 9.59858 11.6934 9.93617 11.5742C10.2738 11.4551 10.522 11.2962 10.6809 11.0976C10.8397 10.8891 10.9191 10.6558 10.9191 10.3976C10.9191 10.0799 10.805 9.82671 10.5766 9.63805C10.3482 9.43947 10.0504 9.28557 9.68298 9.17635C9.32553 9.0572 8.9234 8.94798 8.4766 8.84869C8.03972 8.7494 7.59787 8.63522 7.15106 8.50614C6.71418 8.36713 6.31206 8.19337 5.94468 7.98486C5.58723 7.76642 5.29433 7.47848 5.06596 7.12103C4.83759 6.76359 4.7234 6.30685 4.7234 5.75082C4.7234 5.18486 4.87234 4.66855 5.17021 4.20188C5.47801 3.72529 5.93972 3.34798 6.55532 3.06997C7.18085 2.78203 7.97021 2.63805 8.9234 2.63805C9.54894 2.63805 10.1695 2.71749 10.7851 2.87635C11.4007 3.03522 11.9369 3.26359 12.3936 3.56146L11.783 5.06571C11.3163 4.7877 10.8348 4.58415 10.3383 4.45508C9.84184 4.31607 9.36525 4.24656 8.90851 4.24656C8.37234 4.24656 7.93546 4.3111 7.59787 4.44018C7.27021 4.56926 7.02695 4.73805 6.86809 4.94656C6.71915 5.15508 6.64468 5.39337 6.64468 5.66146C6.64468 5.97919 6.7539 6.23734 6.97234 6.43593C7.20071 6.62458 7.49362 6.77352 7.85106 6.88273C8.21844 6.99195 8.62553 7.10117 9.07234 7.21039C9.51915 7.30968 9.96099 7.42387 10.3979 7.55295C10.8447 7.68202 11.2468 7.85082 11.6043 8.05933C11.9716 8.26784 12.2645 8.55082 12.483 8.90827C12.7113 9.26571 12.8255 9.71749 12.8255 10.2636C12.8255 10.8196 12.6716 11.3359 12.3638 11.8125C12.066 12.2792 11.6043 12.6565 10.9787 12.9444C10.3532 13.2225 9.56383 13.3615 8.61064 13.3615ZM8.14894 14.9998V0.999756H9.35532V14.9998H8.14894Z" fill="currentColor" />
	</symbol>

	<symbol viewBox="0 0 17 16" id="calendar-category-4">
		<path d="M11.8334 14.6666C11.6445 14.6666 11.4862 14.6027 11.3584 14.4749C11.2306 14.3471 11.1667 14.1888 11.1667 13.9999C11.1667 13.811 11.2306 13.6527 11.3584 13.5249C11.4862 13.3971 11.6445 13.3333 11.8334 13.3333H13.8334V11.9999H11.8334C11.6445 11.9999 11.4862 11.936 11.3584 11.8083C11.2306 11.6805 11.1667 11.5221 11.1667 11.3333C11.1667 11.1444 11.2306 10.986 11.3584 10.8583C11.4862 10.7305 11.6445 10.6666 11.8334 10.6666H13.8334V9.33325H11.8334C11.6445 9.33325 11.4862 9.26936 11.3584 9.14158C11.2306 9.01381 11.1667 8.85547 11.1667 8.66658C11.1667 8.4777 11.2306 8.31936 11.3584 8.19159C11.4862 8.06381 11.6445 7.99992 11.8334 7.99992H13.8334V6.66658H11.8334C11.6445 6.66658 11.4862 6.6027 11.3584 6.47492C11.2306 6.34714 11.1667 6.18881 11.1667 5.99992C11.1667 5.81103 11.2306 5.6527 11.3584 5.52492C11.4862 5.39714 11.6445 5.33325 11.8334 5.33325H13.8334V3.99992H11.8334C11.6445 3.99992 11.4862 3.93603 11.3584 3.80825C11.2306 3.68047 11.1667 3.52214 11.1667 3.33325C11.1667 3.14436 11.2306 2.98603 11.3584 2.85825C11.4862 2.73047 11.6445 2.66659 11.8334 2.66659H14.5001C14.8667 2.66659 15.1806 2.79714 15.4417 3.05825C15.7028 3.31936 15.8334 3.63325 15.8334 3.99992V13.3333C15.8334 13.6999 15.7028 14.0138 15.4417 14.2749C15.1806 14.536 14.8667 14.6666 14.5001 14.6666H11.8334ZM4.76674 13.3333H6.90007L8.86674 7.89992L6.80007 6.66658H4.86674L2.80007 7.89992L4.76674 13.3333ZM3.51674 13.7833L1.55007 8.36658C1.43896 8.06659 1.43618 7.76658 1.54174 7.46659C1.64729 7.16658 1.83896 6.93325 2.11674 6.76658L4.50007 5.33325V1.99992C4.50007 1.81103 4.56396 1.6527 4.69174 1.52492C4.81951 1.39714 4.97785 1.33325 5.16674 1.33325H6.50007C6.68896 1.33325 6.84729 1.39714 6.97507 1.52492C7.10285 1.6527 7.16674 1.81103 7.16674 1.99992V5.33325L9.55007 6.76658C9.82785 6.93325 10.0195 7.16658 10.1251 7.46659C10.2306 7.76658 10.2278 8.06659 10.1167 8.36658L8.15007 13.7833C8.06118 14.0499 7.90285 14.2638 7.67507 14.4249C7.44729 14.586 7.18896 14.6666 6.90007 14.6666H4.76674C4.47785 14.6666 4.21951 14.586 3.99174 14.4249C3.76396 14.2638 3.60563 14.0499 3.51674 13.7833Z" fill="currentColor" />
	</symbol>

	<symbol viewBox="0 0 20 20" id="check">
		<path d="M9.16625 19.0387C9.01989 19.3588 8.56712 19.3644 8.41282 19.048L4.83841 11.7191C4.68842 11.4115 5.08754 11.133 5.32448 11.3798L8.43357 14.6188C8.62013 14.8132 8.93933 14.782 9.08483 14.5553L14.2163 6.5588C14.4175 6.24519 14.8966 6.50669 14.7416 6.84557L9.16625 19.0387Z" fill="currentColor" />
	</symbol>

	<symbol viewBox="0 0 24 24" id="uncheck">
		<rect x="4.52075" y="15.2427" width="1.2" height="11" rx="0.6" transform="rotate(-135 4.52075 15.2427)" fill="currentColor" />
		<path d="M4.23798 7.88862C4.00367 7.6543 4.00367 7.27441 4.23798 7.04009C4.4723 6.80578 4.8522 6.80578 5.08651 7.04009L12.0162 13.9697C12.2505 14.2041 12.2505 14.584 12.0162 14.8183C11.7818 15.0526 11.4019 15.0526 11.1676 14.8183L4.23798 7.88862Z" fill="currentColor" />
	</symbol>

	<symbol viewBox="0 0 20 20" id="facebook">
		<path d="M9.99999 0C15.5228 0 20 4.47716 20 9.99999C20 15.1127 16.1629 19.3287 11.2115 19.9267V13.0558L13.9167 13.0558L14.4779 10H11.2115V8.91924C11.2115 8.11181 11.3699 7.55282 11.7332 7.19569C12.0966 6.83855 12.6649 6.68327 13.4848 6.68327C13.6923 6.68327 13.8833 6.68534 14.0527 6.68947C14.2992 6.69547 14.5002 6.70584 14.64 6.72056V3.9504C14.5841 3.93487 14.5181 3.91934 14.4442 3.90405C14.2767 3.86942 14.0685 3.83603 13.8447 3.80672C13.377 3.74544 12.8411 3.70192 12.4662 3.70192C10.952 3.70192 9.80767 4.02585 9.00891 4.69682C8.0449 5.50659 7.58423 6.82185 7.58423 8.68323V9.99999H5.52216V13.0558H7.58423V19.7055C3.2286 18.6249 0 14.6898 0 9.99999C0 4.47716 4.47716 0 9.99999 0Z" fill="currentColor" />
	</symbol>

	<symbol viewBox="0 0 20 20" id="instagram">
		<path d="M15.3293 5.85177C14.6671 5.85306 14.1286 5.31684 14.1273 4.65457C14.126 3.9923 14.6622 3.45381 15.3248 3.45251C15.9874 3.45122 16.5259 3.98776 16.5272 4.65003C16.5281 5.3123 15.9919 5.85047 15.3293 5.85177Z" fill="currentColor" />
		<path fill-rule="evenodd" clip-rule="evenodd" d="M10.0096 15.1342C7.17424 15.1397 4.87092 12.8457 4.86542 10.0097C4.8599 7.17436 7.15446 4.87068 9.98981 4.86517C12.8258 4.85966 15.1294 7.15492 15.1349 9.98996C15.1404 12.826 12.8452 15.1287 10.0096 15.1342ZM9.99337 6.66696C8.15304 6.6702 6.66328 8.16548 6.66652 10.0062C6.67009 11.8472 8.16568 13.3366 10.006 13.333C11.847 13.3295 13.3367 11.8345 13.3332 9.99352C13.3296 8.15252 11.834 6.6634 9.99337 6.66696Z" fill="currentColor" />
		<path fill-rule="evenodd" clip-rule="evenodd" d="M3.43267 0.538732C4.06772 0.289896 4.79445 0.119468 5.85846 0.0692485C6.92509 0.0180605 7.2656 0.00639252 9.98073 0.00121052C12.6965 -0.00397148 13.037 0.00639051 14.1036 0.0536945C15.168 0.0997025 15.895 0.267541 16.5314 0.513786C17.1897 0.767478 17.7483 1.10898 18.305 1.66336C18.8616 2.21837 19.2044 2.77502 19.4613 3.43242C19.7098 4.06812 19.8802 4.79421 19.9308 5.8589C19.9813 6.92519 19.9936 7.26539 19.9988 9.98088C20.004 12.696 19.993 13.0369 19.9463 14.1042C19.9 15.1679 19.7325 15.8953 19.4863 16.5313C19.2319 17.1897 18.8911 17.7482 18.3367 18.3049C17.7823 18.8619 17.2251 19.2043 16.5677 19.4616C15.932 19.7098 15.2059 19.8802 14.1419 19.9311C13.0753 19.9816 12.7347 19.9936 10.0186 19.9988C7.30383 20.004 6.96332 19.9936 5.89671 19.9466C4.83235 19.9 4.10498 19.7325 3.46896 19.4865C2.8106 19.2319 2.25202 18.8913 1.69538 18.3366C1.13843 17.7819 0.795321 17.225 0.538715 16.5676C0.289881 15.9322 0.120089 15.2058 0.0692272 14.1421C0.0183632 13.0751 0.00637922 12.7343 0.00119922 10.0191C-0.00400078 7.30363 0.00669722 6.96343 0.0533472 5.8968C0.100333 4.83212 0.267197 4.10505 0.513441 3.46838C0.767773 2.81033 1.10862 2.25207 1.66364 1.69511C2.218 1.13847 2.77527 0.795015 3.43267 0.538732ZM4.11795 17.8066C4.47078 17.9423 5.00019 18.1043 5.97512 18.1468C7.03006 18.1925 7.34595 18.2025 10.0154 18.1973C12.6858 18.1924 13.0017 18.1811 14.0563 18.1315C15.0303 18.0852 15.5597 17.9213 15.9116 17.7839C16.3785 17.6015 16.7109 17.3834 17.0601 17.0338C17.4094 16.6829 17.6255 16.3495 17.8063 15.8826C17.9424 15.5295 18.1041 14.9997 18.1465 14.0248C18.1928 12.9705 18.2026 12.6542 18.1974 9.98412C18.1925 7.31464 18.1812 6.99842 18.131 5.94378C18.0849 4.96949 17.9213 4.44007 17.7836 4.08853C17.6012 3.62099 17.3838 3.28921 17.0333 2.93961C16.6827 2.59 16.3493 2.37454 15.8818 2.19375C15.5295 2.05734 14.9995 1.89598 14.0252 1.85355C12.9703 1.80721 12.654 1.79781 9.98397 1.803C7.31452 1.80818 6.99863 1.81887 5.94401 1.86877C4.96942 1.9151 4.44064 2.07872 4.08812 2.21643C3.62156 2.39884 3.28914 2.6156 2.93955 2.9665C2.59059 3.31739 2.37448 3.65015 2.1937 4.11801C2.05827 4.47053 1.89529 5.0006 1.8535 5.97489C1.80748 7.02984 1.79777 7.34608 1.80296 10.0155C1.80782 12.6857 1.81915 13.0019 1.86873 14.0559C1.91441 15.0308 2.07932 15.5596 2.21638 15.9124C2.39879 16.3787 2.6162 16.7111 2.96644 17.0607C3.31734 17.409 3.65073 17.6258 4.11795 17.8066Z" fill="currentColor" />
	</symbol>

	<symbol viewBox="0 0 20 20" id="x">
		<path d="M15.2718 1.58643H18.0831L11.9413 8.606L19.1666 18.1581H13.5093L9.07828 12.3648L4.00821 18.1581H1.19528L7.76445 10.6498L0.833252 1.58643H6.63418L10.6394 6.8817L15.2718 1.58643ZM14.2852 16.4754H15.8429L5.78775 3.1807H4.11614L14.2852 16.4754Z" fill="currentColor" />
	</symbol>

	<symbol viewBox="0 0 20 20" id="tik-tok">
		<path d="M14.2272 0H10.8566V13.6232C10.8566 15.2464 9.56024 16.5797 7.94697 16.5797C6.33369 16.5797 5.03732 15.2464 5.03732 13.6232C5.03732 12.029 6.30489 10.7246 7.86056 10.6667V7.24639C4.43235 7.30433 1.66675 10.1159 1.66675 13.6232C1.66675 17.1594 4.48996 20 7.97579 20C11.4616 20 14.2848 17.1304 14.2848 13.6232V6.63767C15.5524 7.56522 17.108 8.11594 18.7501 8.14495V4.72464C16.215 4.63768 14.2272 2.55072 14.2272 0Z" fill="currentColor" />
	</symbol>

	<symbol viewBox="0 0 20 20" id="youtube">
		<path fill-rule="evenodd" clip-rule="evenodd" d="M18.9554 4.02847C19.2657 4.34077 19.4885 4.7291 19.6016 5.15459C20.0198 6.72504 20.0198 10 20.0198 10C20.0198 10 20.0198 13.275 19.6016 14.8455C19.4885 15.271 19.2657 15.6593 18.9554 15.9716C18.6451 16.2839 18.2582 16.5092 17.8334 16.625C16.2698 17.0455 10.0198 17.0455 10.0198 17.0455C10.0198 17.0455 3.76978 17.0455 2.20614 16.625C1.78138 16.5092 1.39449 16.2839 1.08418 15.9716C0.773872 15.6593 0.55103 15.271 0.437957 14.8455C0.0197754 13.275 0.0197754 10 0.0197754 10C0.0197754 10 0.0197754 6.72504 0.437957 5.15459C0.55103 4.7291 0.773872 4.34077 1.08418 4.02847C1.39449 3.71617 1.78138 3.49084 2.20614 3.37504C3.76978 2.95459 10.0198 2.95459 10.0198 2.95459C10.0198 2.95459 16.2698 2.95459 17.8334 3.37504C18.2582 3.49084 18.6451 3.71617 18.9554 4.02847ZM13.2016 10.0001L7.97433 7.02621V12.9739L13.2016 10.0001Z" fill="currentColor" />
	</symbol>

	<symbol viewBox="0 0 17 18" id="home">
		<path d="M2.5 17.5C1.95 17.5 1.47933 17.3043 1.088 16.913C0.696 16.521 0.5 16.05 0.5 15.5V6.5C0.5 6.18333 0.571 5.88333 0.713 5.6C0.854333 5.31667 1.05 5.08333 1.3 4.9L7.3 0.4C7.48333 0.266667 7.675 0.166667 7.875 0.0999999C8.075 0.0333332 8.28333 0 8.5 0C8.71667 0 8.925 0.0333332 9.125 0.0999999C9.325 0.166667 9.51667 0.266667 9.7 0.4L15.7 4.9C15.95 5.08333 16.146 5.31667 16.288 5.6C16.4293 5.88333 16.5 6.18333 16.5 6.5V15.5C16.5 16.05 16.3043 16.521 15.913 16.913C15.521 17.3043 15.05 17.5 14.5 17.5H10V11.5H7V17.5H2.5Z" fill="currentColor" />
	</symbol>

	<symbol viewBox="0 0 17 18" id="home">
		<path d="M2.5 17.5C1.95 17.5 1.47933 17.3043 1.088 16.913C0.696 16.521 0.5 16.05 0.5 15.5V6.5C0.5 6.18333 0.571 5.88333 0.713 5.6C0.854333 5.31667 1.05 5.08333 1.3 4.9L7.3 0.4C7.48333 0.266667 7.675 0.166667 7.875 0.0999999C8.075 0.0333332 8.28333 0 8.5 0C8.71667 0 8.925 0.0333332 9.125 0.0999999C9.325 0.166667 9.51667 0.266667 9.7 0.4L15.7 4.9C15.95 5.08333 16.146 5.31667 16.288 5.6C16.4293 5.88333 16.5 6.18333 16.5 6.5V15.5C16.5 16.05 16.3043 16.521 15.913 16.913C15.521 17.3043 15.05 17.5 14.5 17.5H10V11.5H7V17.5H2.5Z" fill="currentColor" />
	</symbol>

	<symbol viewBox="0 0 20 20" id="lock">
		<path d="M15.0002 6.66671H14.1668V5.00004C14.1668 2.70004 12.3002 0.833374 10.0002 0.833374C7.70016 0.833374 5.8335 2.70004 5.8335 5.00004V6.66671H5.00016C4.0835 6.66671 3.3335 7.41671 3.3335 8.33337V16.6667C3.3335 17.5834 4.0835 18.3334 5.00016 18.3334H15.0002C15.9168 18.3334 16.6668 17.5834 16.6668 16.6667V8.33337C16.6668 7.41671 15.9168 6.66671 15.0002 6.66671ZM10.0002 14.1667C9.0835 14.1667 8.3335 13.4167 8.3335 12.5C8.3335 11.5834 9.0835 10.8334 10.0002 10.8334C10.9168 10.8334 11.6668 11.5834 11.6668 12.5C11.6668 13.4167 10.9168 14.1667 10.0002 14.1667ZM7.50016 6.66671V5.00004C7.50016 3.61671 8.61683 2.50004 10.0002 2.50004C11.3835 2.50004 12.5002 3.61671 12.5002 5.00004V6.66671H7.50016Z" fill="currentColor" />
	</symbol>

</svg>